<svg width="206" height="176" viewBox="0 0 206 176" fill="none" xmlns="http://www.w3.org/2000/svg">
<path fill-rule="evenodd" clip-rule="evenodd" d="M104.776 2C151.533 2 161.377 66.6687 161.568 67.2008C161.766 67.749 161.951 68.3134 162.131 68.861C162.495 69.9733 162.965 71.0442 163.33 72.1492C163.553 72.8233 163.963 73.3816 164.238 74.0182C164.771 75.2345 165.424 76.3949 166.188 77.4823C166.503 77.913 166.751 78.389 166.923 78.8938C167.044 79.2801 167.443 79.3833 167.616 79.7243C167.895 80.2762 168.267 80.7807 168.59 81.3106C168.663 81.497 168.831 81.6296 169.03 81.6573L168.968 82.1834C169.084 82.373 169.124 82.1167 169.246 82.1619C169.399 82.3671 169.617 82.5496 169.639 82.8622C169.659 83.1561 170.003 83.1837 170.12 83.4401C170.378 83.9964 171.096 84.2801 171.085 85.0103C171.601 85.3332 171.854 85.8878 172.243 86.323C172.443 86.5233 172.565 86.7871 172.588 87.0672L172.591 87.1321C172.589 87.4106 173.127 87.3481 172.982 87.7281C173.807 88.346 174.022 89.3556 174.457 90.1918C175.156 91.5339 175.961 92.8304 176.436 94.3C176.673 95.0351 177.134 95.7304 177.39 96.4748C177.966 98.148 178.658 99.7847 179.033 101.527C179.187 102.247 179.502 102.933 179.65 103.654L179.821 104.489C180.074 105.74 180.315 106.995 180.475 108.264C180.557 108.55 180.557 108.853 180.474 109.14C180.337 109.465 180.702 109.674 180.732 110.001C180.768 110.388 180.613 110.755 180.725 111.167C180.786 111.394 180.725 111.758 180.796 112.021C181.025 112.876 180.734 113.758 180.984 114.608C181.024 114.936 180.989 115.269 180.883 115.583C180.71 116.629 181.026 117.697 180.711 118.718C180.563 119.222 180.535 119.752 180.628 120.267L180.667 120.466C180.695 120.613 180.713 120.757 180.641 120.856C180.353 121.248 180.427 121.711 180.37 122.14L180.359 122.211C180.277 122.691 180.362 123.195 180.216 123.684C180.018 124.163 179.907 124.673 179.887 125.191C179.961 126.07 179.665 126.858 179.483 127.673C179.392 128.081 179.467 128.565 179.018 128.868C178.79 129.022 179.329 129.321 179.002 129.547L178.964 129.571C178.724 129.706 178.734 129.924 178.802 130.185C178.863 130.424 178.445 130.589 178.565 130.833C178.685 131.078 178.739 131.433 178.599 131.478C178.25 131.593 178.605 131.972 178.312 132.044C178.283 132.059 178.263 132.087 178.258 132.12C178.158 133.037 177.566 133.79 177.419 134.707C177.308 135.254 177.095 135.776 176.789 136.244C176.537 136.697 176.322 137.169 176.147 137.656C175.819 138.476 175.257 139.161 174.941 139.977C174.855 140.198 174.281 140.124 174.573 140.577C174.239 140.695 174.34 141.04 174.206 141.256C174.058 141.419 173.885 141.559 173.694 141.669C173.571 142.155 173.334 142.605 173.004 142.982C172.426 143.825 171.796 144.631 171.116 145.395L170.555 146.022C169.804 146.859 169.03 147.677 168.041 148.254C167.787 148.402 167.902 148.683 167.693 148.835C166.481 149.728 165.364 150.742 163.985 151.419C163.407 151.702 162.913 152.206 162.323 152.501C161.204 153.061 160.166 153.759 158.97 154.195L158.757 154.269C157.995 154.522 157.245 154.905 156.472 155.184C154.883 155.807 153.225 156.237 151.533 156.464L150.49 156.58C149.562 156.682 148.633 156.777 147.696 156.802C147.252 156.814 146.827 156.674 146.421 156.725C146.025 156.774 145.624 156.742 145.242 156.63C144.94 156.545 144.684 156.805 144.359 156.665C144.109 156.509 143.8 156.486 143.531 156.6L143.478 156.625C143.323 156.714 143.02 156.549 142.785 156.496C142.442 156.448 142.106 156.365 141.78 156.248C141.528 156.132 141.207 156.506 141.031 156.108C140.713 156.355 119.05 151.218 99.1512 161.65C97.5307 162.721 95.6345 163.192 93.903 164.024C93.098 164.412 92.1931 164.589 91.3266 164.854L91.1415 164.912C89.612 165.405 88.0434 165.742 86.4771 166.093C85.038 166.404 83.5799 166.621 82.1123 166.741C81.0572 166.836 79.9971 166.88 78.9444 166.995C78.5176 167.041 78.0991 166.741 77.6815 166.999C76.743 166.744 75.7578 167.053 74.822 166.765C74.1995 166.949 73.6147 166.721 73.0425 166.553C72.606 166.424 72.1945 166.692 71.7533 166.502C71.3517 166.293 70.9019 166.193 70.4492 166.213C69.6978 166.328 69.0438 166.053 68.3593 165.907C66.769 165.569 65.1844 165.204 63.6054 164.811C63.0883 164.682 62.5075 164.732 62.0644 164.337C61.6758 163.991 61.0625 164.208 60.6806 163.799C60.5412 163.65 60.3634 163.939 60.1535 163.826C59.7441 163.607 59.2178 163.751 58.8352 163.356C58.5518 163.062 58.0169 163.261 57.7031 162.907L57.6618 162.855C57.4767 162.599 56.9879 163.204 56.8434 162.632C56.2595 162.587 55.7755 162.27 55.2555 162.052C54.8247 161.872 54.3163 161.974 53.9276 161.599C53.5963 161.28 52.9703 161.515 52.6834 161.037C51.9814 161.031 51.4637 160.507 50.7947 160.369C50.2868 160.236 49.7992 160.036 49.3447 159.773C48.6243 159.404 47.8928 159.055 47.1558 158.725C46.8914 158.602 46.634 158.465 46.3848 158.314C46.2451 158.233 46.2111 158.052 46.0115 158.008C44.7478 157.729 43.685 156.994 42.6055 156.351C41.99 156.033 41.401 155.667 40.8442 155.256L40.6598 155.118C40.4969 154.978 40.1585 154.909 40.0152 154.714C39.6158 154.173 39.0183 153.908 38.4766 153.583L38.3869 153.528C38.0816 153.349 37.8042 153.126 37.5633 152.867C37.5177 152.818 37.4991 152.711 37.4507 152.699C36.5514 152.477 36.0148 151.736 35.3272 151.218C34.7358 150.772 34.2185 150.23 33.6362 149.776L33.4145 149.61C32.0516 148.637 17.1391 132.261 15.4493 129.435L14.9657 128.626C14.4829 127.816 14.0055 127 13.566 126.167L13.1918 125.459C12.8181 124.749 12.4503 124.033 12.1251 123.306L11.6901 122.335C10.8221 120.391 9.97272 118.438 9.2488 116.431C8.60327 114.641 8.06886 112.821 7.52934 111C7.18377 109.83 6.89176 108.656 6.64507 107.464C6.25095 105.56 5.8995 103.649 5.59074 101.729C5.30276 99.9218 5.40929 98.088 5.02471 96.3012C5.27667 95.2039 4.81344 94.0903 5.10107 92.9942C4.8877 92.4531 5.07532 91.8913 5.09537 91.358C5.11594 90.8073 4.99215 90.2303 5.21253 89.6722C5.31348 89.4187 5.08012 89.114 5.20656 88.8044C5.34537 88.5467 5.36138 88.2408 5.25024 87.9701C5.62493 87.7982 5.17832 87.5336 5.33391 87.2887C5.50168 87.023 5.57578 86.7091 5.54453 86.3967C5.43542 85.6975 5.839 85.0519 5.76815 84.4202C5.69428 83.7741 6.01396 83.2266 6.01295 82.6476L6.00883 82.5386C5.95365 81.7785 6.49811 81.2062 6.51627 80.4872C6.51798 80.4241 6.667 80.3661 6.74871 80.3036C6.7225 80.1418 6.54326 80.1785 6.41612 80.0527C6.61909 79.8769 6.79668 79.6739 6.94385 79.4497C7.05525 79.1421 7.13437 78.8239 7.17993 78.5001L6.66382 77.8356C6.85427 77.4556 6.78787 77.1098 7.04215 76.8117C7.15282 76.6815 7.09111 76.2835 7.10478 76.0087C7.12279 75.6477 7.58757 75.4327 7.47545 75.1477C7.38896 74.8198 7.41698 74.4724 7.5549 74.1625C8.21984 71.2369 8.89715 68.3142 9.58682 65.3944C9.65936 65.0814 9.59625 64.6877 9.98218 64.5044C9.56047 64.0699 10.2227 63.9182 10.233 63.5738C10.2868 63.2518 10.4111 62.9456 10.5971 62.677C10.8605 62.1743 10.8847 61.5505 11.0348 60.984C11.0743 60.5835 11.2263 60.2023 11.4733 59.884C11.7302 59.6184 11.6932 59.1561 11.8867 58.7833C12.1599 58.3328 12.3717 57.8481 12.5165 57.3419C12.5601 56.9782 12.7054 56.6339 12.9358 56.3485C13.1404 56.123 12.9724 55.6562 13.3701 55.4861C13.4816 54.8318 13.8731 54.3064 14.1629 53.7331L14.2159 53.625C14.9278 52.1498 15.7279 50.7185 16.6119 49.3388C17.3464 48.1777 18.061 47.0042 18.8066 45.8503C19.0492 45.4779 19.3072 45.1067 19.5739 44.7531C20.5006 43.4526 21.4987 42.2041 22.5638 41.0134C23.5378 39.9833 24.4664 38.9068 25.4891 37.9163C26.0328 37.3894 26.4777 36.7424 27.0056 36.1826C28.2495 34.8615 29.5269 33.5761 30.8705 32.3561C32.0051 31.2374 33.2459 30.2309 34.5755 29.3508C34.937 29.1314 35.2342 28.8098 35.5831 28.5669C36.0067 28.3341 36.4132 28.0716 36.7994 27.7813C37.2488 27.3596 37.8002 27.0913 38.2541 26.7006C38.6065 26.3974 39.1701 26.5702 39.4223 26.0249C39.6061 25.6281 40.294 25.7735 40.5257 25.3098C41.1608 25.2888 41.4574 24.6751 42.0341 24.4734L42.111 24.4495C42.7186 24.2841 43.2373 23.7945 43.7948 23.4475C44.3324 23.0675 44.8951 22.7238 45.4788 22.4187C46.5749 21.9262 47.5209 21.1757 48.5921 20.6669C49.6136 20.1825 50.5328 19.4734 51.6469 19.2033C51.9101 19.1397 51.861 18.9081 52.0422 18.8092C52.2306 18.7058 52.4371 18.7743 52.6073 18.655C53.3118 18.1964 58.0185 2 104.776 2Z" fill="#B6ACFA"/>
<path fill-rule="evenodd" clip-rule="evenodd" d="M43.1994 26.3055C41.2972 27.3786 38.5122 26.0097 38.1999 23.8482C39.413 23.7834 40.7099 23.6888 41.6689 22.943C42.628 22.1972 42.9638 20.5457 42.0024 19.8029C34.1755 18.8417 26.5617 16.1824 19.8383 12.0617C24.4292 10.6784 28.3794 7.76051 32.6915 5.66399C37.0036 3.56747 42.219 2.32756 46.5196 4.44749C50.7425 6.5291 55.6039 3.87385 60.0105 2.21634C67.673 -0.665852 76.4595 -0.424208 83.9521 2.87477C89.4185 5.28164 98.6814 1.37493 104.587 0.47897C114.233 -0.984564 123.649 5.77605 133.335 4.60523C132.296 5.29229 131.257 5.97935 130.218 6.6664C131.241 6.57288 132.27 6.53506 133.297 6.55316C125.259 10.3997 117.221 14.2463 109.182 18.0928C111.219 18.9165 113.255 19.7402 115.292 20.5639C114.813 22.0986 113.097 23.135 111.516 22.8445C112.788 23.857 114.06 24.8695 115.332 25.882C113.974 26.8465 112.255 27.2896 110.6 27.1019C112.363 28.24 113.818 29.8501 114.772 31.7188C118.971 30.3199 123.571 30.1476 127.862 31.2286C123.985 31.7369 120.107 32.2453 116.229 32.7537C116.815 34.3481 117.401 35.9424 117.986 37.5368C123.052 36.3774 128.435 36.641 133.364 38.2896C128.477 38.414 123.59 38.5384 118.703 38.6628C118.589 45.1464 115.361 51.7584 109.693 54.9092C104.025 58.06 92.6999 60.8615 88.9485 51.6876C86.0766 53.5725 86.2799 58.1033 88.3276 60.8615C90.3752 63.6198 93.6284 65.1464 96.5706 66.9196C106.344 72.8096 113.715 82.5637 116.713 93.5735C119.712 104.583 118.304 116.728 112.867 126.76C120.198 127.9 127.009 132.072 131.355 138.083C140.716 133.728 145.9 123.791 153.069 116.363C161.225 107.913 172.483 102.528 184.18 101.48C191.101 100.861 198.993 102.195 203.03 107.85C208.277 115.201 203.439 126.63 195.064 130.009C188.425 132.687 180.937 131.34 173.795 131.846C159.435 132.864 146.828 141.332 134.987 149.519C134.504 152.17 135.474 155.04 137.465 156.856C141.701 152.478 147.043 149.179 152.855 147.355C155.003 146.68 158.224 146.856 158.462 149.095C158.553 149.942 158.107 150.746 157.656 151.469C153.781 157.681 148.317 162.893 141.929 166.47C138.558 168.358 134.79 169.822 130.932 169.606C127.073 169.389 123.144 167.162 121.834 163.527C121.226 161.842 121.161 159.892 120.01 158.52C118.065 156.197 114.327 156.893 111.6 158.212C108.872 159.531 105.965 161.324 103.038 160.542C95.722 158.585 88.1077 157.746 80.5408 158.062C70.9042 158.466 61.0854 160.709 51.749 158.289C48.63 157.481 45.1397 156.206 42.3767 157.863C36.9316 161.13 40.6043 171.586 35.0181 174.605C33.0393 175.675 30.6143 175.28 28.4314 174.738C18.7846 172.344 9.73616 167.576 2.30718 160.973C1.59122 160.336 0.853579 159.622 0.652877 158.685C0.0508673 155.875 4.19793 154.707 7.02372 155.227C11.8239 156.11 16.4147 158.111 20.3295 161.026C21.7019 162.048 23.7899 160.856 24.3713 159.247C24.9527 157.637 24.5526 155.866 24.3257 154.17C22.8926 143.458 29.6124 132.197 39.7195 128.372C33.6002 119.442 31.2733 108.001 33.4186 97.3899C35.5639 86.7792 42.153 77.1402 51.2608 71.289C54.8992 68.9515 59.0795 67.0397 61.3983 63.3894C63.7171 59.7391 62.6994 53.615 58.4575 52.7734C54.4607 57.102 47.9599 58.9328 42.2916 57.3262C36.6233 55.7196 32.05 50.7498 30.919 44.9678C27.1568 46.2384 23.3946 47.509 19.6323 48.7796C22.9716 46.2061 26.9262 44.4366 31.0703 43.6618C31.468 41.9385 31.8657 40.2152 32.2634 38.4919C25.0847 38.0288 17.8048 39.2102 11.1409 41.9198C15.2416 38.8331 20.459 37.2646 25.5819 37.5784C30.7926 37.8976 36.0893 35.3481 39.0903 31.0765C37.2127 30.4164 35.5253 29.2247 34.2752 27.6761C36.19 26.6367 38.5092 26.3673 40.6113 26.9402M80.026 139.328C79.6843 139.661 79.3167 140.056 79.3408 140.532C79.3648 141.009 80.0794 141.364 80.3259 140.956C81.6712 138.727 84.0108 137.125 86.575 136.676C89.1391 136.227 91.8839 136.94 93.9062 138.579C94.6117 139.151 95.2416 139.834 96.0477 140.252C96.3379 140.403 96.8345 140.407 96.8465 140.08C96.8505 139.973 96.7891 139.875 96.7288 139.786C95.2767 137.646 93.1052 136.003 90.6506 135.187C88.499 134.472 86.0058 134.427 84.0815 135.626C83.3827 136.062 82.7867 136.641 82.1967 137.215C81.4732 137.92 80.7496 138.624 80.026 139.328ZM69.5919 135.434C66.8062 135.065 63.807 136 61.952 138.111C61.625 138.483 61.3278 138.901 61.2153 139.384C61.1028 139.866 61.2085 140.424 61.5823 140.749C63.0172 138.52 65.5672 137.05 68.2155 136.925C70.8637 136.8 73.5408 138.024 75.1793 140.108C75.4355 140.434 75.6799 140.79 76.0436 140.989C76.4072 141.188 76.9365 141.163 77.1579 140.812C77.4222 140.394 77.1025 139.858 76.7764 139.486C74.9255 137.371 72.3776 135.802 69.5919 135.434ZM89.2416 132.582C89.1984 133.053 89.8206 133.346 90.2678 133.192C90.715 133.037 91.0115 132.625 91.3109 132.259C93.8012 129.214 98.5432 128.296 101.99 130.193C102.442 129.811 102.468 129.079 102.165 128.57C101.863 128.062 101.31 127.749 100.747 127.569C99.5258 127.179 98.2002 127.312 96.9439 127.566C93.9706 128.168 90.967 129.577 89.4039 132.177C89.3284 132.303 89.2549 132.436 89.2416 132.582ZM77.552 142.463C76.3301 142.548 75.134 142.872 73.9901 143.309C72.409 143.915 70.8523 144.796 69.9268 146.214C71.284 146.598 72.5851 145.586 73.8249 144.913C76.6062 143.404 80.2138 143.56 82.8544 145.304C83.6829 145.851 84.7474 146.557 85.5552 145.98C83.6653 143.611 80.5753 142.253 77.552 142.463ZM82.5724 141.699C83.4992 141.216 84.2402 140.432 85.1596 139.934C86.4258 139.25 88.0031 139.17 89.3315 139.725C90.0528 140.027 90.6913 140.498 91.4021 140.823C92.1129 141.149 92.9594 141.318 93.6675 140.986C93.7461 140.95 93.8274 140.901 93.8606 140.821C93.9144 140.691 93.8187 140.55 93.7259 140.444C92.1415 138.636 89.6587 137.656 87.266 137.895C84.8734 138.133 82.6333 139.585 81.4376 141.671C81.6871 142 82.2065 141.89 82.5724 141.699ZM64.0096 141.785C64.5062 141.503 64.8947 141.067 65.3488 140.72C66.2567 140.027 67.4395 139.707 68.5743 139.839C69.8389 139.986 70.9793 140.655 72.0252 141.381C72.3311 141.594 72.6432 141.817 73.0059 141.901C73.3686 141.986 73.8006 141.894 74.0058 141.583C74.2088 141.276 74.1273 140.847 73.9101 140.55C73.6929 140.252 73.3668 140.057 73.049 139.87C71.7564 139.112 70.3902 138.354 68.8936 138.277C67.0229 138.18 65.284 139.156 63.6661 140.1C63.0099 140.483 62.2564 141.063 62.3953 141.81C62.8444 142.163 63.513 142.068 64.0096 141.785ZM72.4348 134.534C72.7725 134.971 73.4338 134.502 73.8067 134.095C74.9552 132.84 76.6107 132.063 78.3099 131.982C80.0091 131.9 81.7314 132.515 82.9948 133.654C83.3135 133.941 83.6496 134.281 84.0785 134.292C84.5074 134.304 84.8939 133.705 84.5536 133.444C82.7322 132.044 80.6129 130.901 78.321 130.75C76.029 130.599 73.5589 131.627 72.4978 133.664C72.3556 133.937 72.2467 134.29 72.4348 134.534ZM92.6996 134.151C93.0021 134.023 93.2238 133.763 93.4554 133.53C95.2189 131.756 98.2064 131.359 100.372 132.612C100.913 132.925 101.728 133.27 102.042 132.73C102.305 132.279 101.837 131.754 101.391 131.484C98.4786 129.718 94.3271 130.39 92.1215 132.986C91.8968 133.25 91.6812 133.612 91.8356 133.923C91.9817 134.217 92.3972 134.279 92.6996 134.151ZM94.3095 134.317C94.1843 134.422 94.0595 134.539 94.0068 134.694C93.8596 135.125 94.3836 135.528 94.8378 135.492C95.292 135.456 95.6781 135.164 96.0902 134.97C97.0949 134.496 98.3023 134.609 99.3221 135.049C99.7256 135.224 100.116 135.449 100.551 135.514C100.986 135.579 101.493 135.435 101.69 135.043C99.9623 132.901 96.4217 132.553 94.3095 134.317ZM66.9838 133.495C67.2417 133.616 67.5936 133.593 67.7596 133.361C67.9853 133.046 67.7435 132.618 67.5039 132.313C66.6928 131.282 65.8203 130.266 64.7054 129.575C63.5905 128.883 62.1863 128.55 60.9446 128.974C60.8184 129.433 61.3891 129.744 61.8383 129.901C63.5679 130.504 65.1376 131.559 66.349 132.933C66.5374 133.146 66.7259 133.374 66.9838 133.495ZM82.268 134.646C80.2269 133.345 77.4409 133.322 75.3787 134.59C75.0203 134.81 74.652 135.12 74.6242 135.54C74.5964 135.96 75.1664 136.349 75.4491 136.038C76.5884 134.782 78.6699 134.521 80.0835 135.458C80.7776 135.917 81.7743 135.854 82.4053 135.311C82.7032 135.28 82.5205 134.807 82.268 134.646ZM97.1157 141.689C94.2155 141.494 91.5169 143.2 89.4118 145.204C89.565 145.559 90.0877 145.465 90.4419 145.312C92.8392 144.274 95.2365 143.236 97.6338 142.199C97.814 141.961 97.4139 141.71 97.1157 141.689ZM69.5139 142.981C69.8705 143.183 70.2199 143.458 70.6299 143.459C71.0398 143.459 71.4463 142.965 71.1863 142.648C70.3674 141.65 69.0803 141.053 67.7891 141.073C66.4979 141.092 65.2297 141.729 64.4417 142.752C64.5388 143.123 64.9938 143.295 65.374 143.239C65.7543 143.184 66.0892 142.969 66.4418 142.817C67.4172 142.394 68.5893 142.457 69.5139 142.981ZM83.8951 142.709C83.8626 142.994 84.1862 143.213 84.4731 143.197C84.76 143.181 85.0121 143.013 85.2638 142.875C86.3203 142.293 87.6213 142.174 88.7659 142.554C89.4995 142.797 90.4147 143.195 90.9441 142.632C90.9905 142.311 90.6677 142.068 90.3808 141.915C89.3526 141.368 88.2207 140.955 87.0562 140.966C85.8916 140.977 84.6899 141.466 84.0251 142.422C83.9645 142.509 83.9072 142.603 83.8951 142.709ZM81.7305 130.178C82.9293 130.607 84.0459 131.265 85.0025 132.105C85.3968 132.452 85.7743 132.836 86.2527 133.052C86.7311 133.268 87.352 133.273 87.7265 132.905C86.898 132.27 86.2174 131.443 85.7533 130.508C85.5033 130.004 84.8368 129.912 84.275 129.884C83.454 129.844 82.6329 129.804 81.8119 129.764C81.7252 129.88 81.6944 130.037 81.7305 130.178ZM71.0219 133.061C71.4458 132.665 71.7586 132.166 72.1502 131.738C72.7576 131.074 73.5575 130.589 74.4266 130.358C74.8015 130.257 75.2945 130.066 75.2379 129.682C74.1756 129.497 72.9636 129.348 72.1259 130.027C70.9526 130.978 70.0225 132.226 69.4469 133.622C70.0133 133.747 70.598 133.457 71.0219 133.061ZM61.5795 132.58C62.3408 133.076 63.102 133.572 63.8633 134.068C64.1855 134.278 64.597 134.493 64.9313 134.303C65.2416 134.126 65.289 133.671 65.1273 133.353C64.9656 133.035 64.6572 132.822 64.3612 132.623C63.7414 132.205 63.1216 131.788 62.5018 131.371C61.9828 131.021 61.1373 130.742 60.8549 131.301C60.6115 131.782 61.1275 132.285 61.5795 132.58ZM77.6077 138.542C77.899 138.831 78.3071 139.144 78.6772 138.967C78.846 138.886 78.9546 138.72 79.0546 138.562C79.3847 138.04 79.7147 137.518 80.0447 136.997C79.1806 136.036 77.4845 136.01 76.5918 136.945C76.5232 137.016 76.4564 137.099 76.4441 137.197C76.4247 137.353 76.5453 137.488 76.657 137.599C76.9739 137.913 77.2908 138.228 77.6077 138.542ZM64.2864 146.001C64.9055 146.218 65.6362 146.282 66.1822 145.918C65.3602 144.973 64.3969 144.151 63.334 143.488C63.0325 143.3 62.6926 143.118 62.3408 143.168C61.9889 143.218 61.6775 143.618 61.8479 143.93C62.3708 144.887 63.2572 145.64 64.2864 146.001ZM98.2518 138.402C98.5444 138.049 98.837 137.695 99.1296 137.342C99.2304 137.22 99.3368 137.083 99.3305 136.925C99.3225 136.724 99.1388 136.58 98.964 136.482C98.3561 136.14 97.6382 135.997 96.9457 136.08C96.6808 136.112 96.4049 136.184 96.2187 136.375C96.0325 136.566 95.9788 136.905 96.1662 137.095C96.5909 137.526 97.0157 137.956 97.4404 138.386C97.5792 138.527 97.755 138.679 97.9481 138.637C98.0757 138.61 98.1686 138.503 98.2518 138.402ZM67.7233 130.765C67.9857 131.047 68.3154 131.337 68.6996 131.305C69.5237 131.237 69.7893 129.815 70.6125 129.893C70.8335 129.528 70.2304 129.237 69.8043 129.23C68.7018 129.213 67.5992 129.195 66.4966 129.178C66.8565 129.742 67.2677 130.274 67.7233 130.765ZM74.5327 146.262C76.8262 146.252 79.1198 146.242 81.4133 146.232C81.2123 145.779 80.6742 145.594 80.1887 145.494C78.5971 145.164 76.9282 145.214 75.3594 145.639C75.0082 145.735 74.6073 145.906 74.5327 146.262ZM88.694 143.848C87.9352 143.883 87.1763 143.917 86.4175 143.951C86.1725 143.962 85.8581 144.033 85.8279 144.277C85.8144 144.386 85.869 144.49 85.9219 144.586C86.1225 144.95 86.336 145.329 86.6829 145.559C87.0299 145.788 87.552 145.811 87.822 145.494C88.0289 145.252 88.0452 144.873 88.2918 144.671C88.4509 144.541 88.6714 144.515 88.8472 144.409C89.0231 144.302 89.135 144.026 88.972 143.901C88.8955 143.842 88.7903 143.844 88.694 143.848ZM69.0451 145.118C69.2478 144.802 69.056 144.354 68.7401 144.15C68.4242 143.947 68.0294 143.922 67.6541 143.904C67.2396 143.883 66.6938 143.959 66.6194 144.368C66.584 144.562 66.683 144.753 66.7788 144.926C67.0601 145.434 67.4738 146.016 68.0515 145.959C68.4992 145.914 68.8023 145.497 69.0451 145.118ZM99.0223 140.567C99.3629 140.595 99.6682 140.364 99.9071 140.12C100.636 139.375 101.099 138.375 101.197 137.338C100.956 137.184 100.661 137.423 100.476 137.641C99.8558 138.375 99.2353 139.109 98.6147 139.843C98.3941 140.103 98.6818 140.539 99.0223 140.567ZM61.062 135.369C61.408 135.802 62.0755 135.937 62.5632 135.674C62.8129 135.539 63.0236 135.271 62.974 134.992C62.9298 134.743 62.7033 134.574 62.4944 134.432C62.1927 134.226 61.8909 134.02 61.5892 133.814C61.497 133.752 61.3911 133.686 61.2818 133.708C61.2065 133.724 61.1461 133.779 61.0955 133.837C60.7308 134.255 60.7159 134.936 61.062 135.369ZM87.8619 130.798C88.2242 131.102 88.7613 130.788 89.1209 130.48C89.5111 130.147 89.9014 129.814 90.2916 129.48C90.0707 129.269 89.7178 129.317 89.4187 129.379C88.5499 129.558 87.681 129.738 86.8122 129.917C87.1621 130.211 87.512 130.504 87.8619 130.798ZM101.506 126.536C101.724 126.808 102.185 126.75 102.436 126.506C102.686 126.263 102.779 125.904 102.851 125.562C102.868 125.479 102.884 125.391 102.85 125.314C102.762 125.119 102.473 125.178 102.28 125.268C101.759 125.511 101.146 126.088 101.506 126.536Z" fill="#F2F3F7"/>
<path fill-rule="evenodd" clip-rule="evenodd" d="M33.4184 97.3897C35.5637 86.779 42.8989 77.8966 52.0067 72.0454C47.4017 78.358 33.2703 88.7099 37.8124 100.243C45.0728 118.678 73.3172 121.578 72.3347 121.778C55.6293 125.184 31.8211 105.29 33.4184 97.3897Z" fill="#E7EAEE"/>
<path fill-rule="evenodd" clip-rule="evenodd" d="M86.8536 5.31156C85.6915 5.45254 84.6675 6.38325 84.4166 7.52668C93.824 2.46867 105.187 1.16833 115.493 3.97022C115.502 9.16813 111.856 14.1676 106.904 15.7474L96.1681 19.1724C99.0003 19.4865 101.91 19.0712 104.541 17.9774C105.476 19.4504 107.016 20.5262 108.721 20.8971L105.421 21.6209C105.907 23.1034 106.901 24.4144 108.197 25.2837C107.097 24.9071 105.873 24.9032 104.772 25.2729L105.51 27.956C100.644 27.2811 95.4449 27.9437 91.3464 30.6522C87.2479 33.3607 84.4957 38.3397 85.2342 43.1965C86.0985 37.916 89.7172 33.1652 94.5782 30.929C99.4393 28.6928 105.401 29.0363 109.974 31.8159L106.872 34.1132C108.063 34.587 109.475 34.466 110.568 33.7963C112.955 34.8524 112.294 39.2201 109.701 39.5227L113.131 39.7611C113.725 45.5931 110.123 51.6072 104.7 53.8349C99.2778 56.0626 92.4877 54.318 88.8106 49.7525C84.2463 52.0834 84.5662 59.1478 87.8192 63.1081C90.09 65.8727 93.2173 67.6688 96.3497 69.4678C97.7045 70.2459 99.0602 71.0246 100.348 71.8824C107.189 76.4392 112.289 83.5454 114.416 91.4854C110.701 93.973 107.397 97.072 104.676 100.62C108.701 100.432 112.643 98.79 115.612 96.0646L116.245 102.196C112.987 103.199 110.058 105.248 107.999 107.965C110.903 108.261 113.898 107.583 116.391 106.064C115.498 113.119 113.886 120.082 111.589 126.812L104.099 126.751C105.876 121.84 107.676 116.556 106.366 111.5C105.057 106.444 99.185 102.271 94.5631 104.703C99.8788 100.418 103.904 94.5532 105.99 88.0523L92.6044 105.331L82.3323 105.418C82.0092 100.578 81.6985 95.6177 83.0744 90.9664C84.4502 86.3151 87.8856 81.9608 92.6187 80.9002C93.1323 80.7851 93.679 80.6914 94.233 80.5965C96.5464 80.2002 98.9856 79.7823 99.6648 77.6917C91.992 77.2453 84.3008 82.1572 81.4785 89.3061C79.4675 94.4002 79.8219 100.078 80.2071 105.542C73.1138 104.519 65.8507 104.683 58.811 106.026C57.5889 101.86 56.3215 97.6009 53.758 94.0973C51.1944 90.5936 47.0327 87.9363 42.713 88.3688C49.6698 89.4028 53.1159 97.1332 55.7392 103.659C58.3625 110.185 63.1245 117.638 70.1281 116.993C72.1227 116.809 72.7576 120.085 71.229 121.38C69.7003 122.674 67.4289 122.427 65.4721 121.999C55.3928 119.793 45.9822 114.618 38.7215 107.287C37.3077 105.86 35.9407 104.298 35.2875 102.398C34.4815 100.054 34.857 97.4652 35.55 95.0853C39.0905 82.9273 49.9863 74.5971 60.341 67.308C65.9119 63.3865 65.7121 53.6686 59.9847 49.9794C55.7451 53.8321 50.0922 56.5259 44.3982 55.8974C38.7041 55.2689 33.3152 50.6068 33.1316 44.8811C34.9199 44.7236 36.6728 44.1745 38.2315 43.2837C36.7015 42.7401 34.9772 42.7633 33.4624 43.348C33.0505 41.8049 33.3513 40.0867 34.2629 38.7753L37.5094 38.4284C36.8567 37.6905 35.9464 37.185 34.9751 37.0212C37.318 33.117 42.7559 32.0485 47.1138 33.3677C51.4716 34.687 55.0009 37.8301 58.3774 40.8847C54.8566 33.1653 45.3096 30.677 36.9739 29.0951L40.6113 26.9402C38.5092 26.3673 36.19 26.6367 34.2752 27.6761C35.5253 29.2247 37.2127 30.4164 39.0903 31.0765C36.0893 35.3481 30.7926 37.8976 25.5819 37.5784C20.459 37.2646 15.2416 38.8331 11.1409 41.9198C17.8048 39.2102 25.0847 38.0288 32.2634 38.4919L31.0703 43.6618C26.9262 44.4366 22.9716 46.2061 19.6323 48.7796L30.919 44.9678C32.05 50.7498 36.6233 55.7196 42.2916 57.3262C47.9599 58.9328 54.4607 57.102 58.4575 52.7734C62.6994 53.615 63.7171 59.7391 61.3983 63.3894C59.5622 66.2798 56.5591 68.0802 53.582 69.8649C52.7992 70.3342 52.0183 70.8024 51.2608 71.289C42.153 77.1402 35.5639 86.7792 33.4186 97.3899C31.2733 108.001 33.6002 119.442 39.7195 128.372C29.6124 132.197 22.8926 143.458 24.3257 154.17C24.3585 154.415 24.395 154.662 24.4315 154.909L24.4316 154.91L24.4316 154.91C24.6478 156.375 24.8686 157.87 24.3713 159.247C23.7899 160.856 21.7019 162.048 20.3295 161.026C16.4147 158.111 11.8239 156.11 7.02372 155.227C4.19793 154.707 0.0508673 155.875 0.652877 158.685C0.853579 159.622 1.59122 160.336 2.30718 160.973C9.73616 167.576 18.7846 172.344 28.4314 174.738C30.6143 175.28 33.0393 175.675 35.0181 174.605C37.8351 173.083 38.2976 169.669 38.7622 166.24C39.2188 162.868 39.6775 159.482 42.3767 157.863C44.8141 156.401 47.8175 157.221 50.6326 157.989L50.633 157.99C51.009 158.092 51.3815 158.194 51.749 158.289C58.443 160.024 65.385 159.362 72.33 158.7C75.0715 158.438 77.8134 158.177 80.5408 158.062C88.1077 157.746 95.722 158.585 103.038 160.542C105.587 161.223 108.12 159.952 110.533 158.741L110.534 158.74C110.892 158.56 111.248 158.382 111.6 158.212C114.327 156.893 118.065 156.197 120.01 158.52C120.78 159.438 121.064 160.614 121.35 161.797C121.491 162.382 121.633 162.969 121.834 163.527C123.144 167.162 127.073 169.389 130.932 169.606C134.79 169.822 138.558 168.358 141.929 166.47C148.317 162.893 153.781 157.681 157.656 151.469C158.107 150.746 158.553 149.942 158.462 149.095C158.224 146.856 155.003 146.68 152.855 147.355C147.043 149.179 141.701 152.478 137.465 156.856C135.474 155.04 134.504 152.17 134.987 149.519C146.828 141.332 159.435 132.864 173.795 131.846C176.047 131.687 178.333 131.711 180.616 131.736H180.616C185.574 131.79 190.518 131.843 195.064 130.009C203.439 126.63 208.277 115.201 203.03 107.85C198.993 102.195 191.101 100.861 184.18 101.48C172.483 102.528 161.225 107.913 153.069 116.363C150.803 118.711 148.735 121.309 146.671 123.903C142.205 129.515 137.757 135.105 131.355 138.083C127.009 132.072 120.198 127.9 112.867 126.76C118.304 116.728 119.712 104.583 116.713 93.5735C113.715 82.5637 106.344 72.8096 96.5706 66.9196C96.038 66.5986 95.4952 66.2857 94.9513 65.9721C92.4901 64.5534 90.0046 63.1205 88.3276 60.8615C86.2799 58.1033 86.0766 53.5725 88.9485 51.6876C92.7677 56.9282 100.782 58.06 106.45 54.9092C112.118 51.7584 115.346 45.1464 115.46 38.6628L130.121 38.2896C125.192 36.641 119.809 36.3774 114.743 37.5368L112.986 32.7537L124.619 31.2286C120.328 30.1476 115.728 30.3199 111.529 31.7188C110.575 29.8501 109.12 28.24 107.357 27.1019C109.012 27.2896 110.731 26.8465 112.089 25.882L108.273 22.8445C109.854 23.135 111.57 22.0986 112.048 20.5639L105.939 18.0928L130.054 6.55316C129.027 6.53506 127.998 6.57288 126.975 6.6664L130.092 4.60523C125.333 5.18053 120.638 3.84085 115.95 2.50283C111.097 1.1178 106.25 -0.265429 101.344 0.47897C99.4161 0.771411 97.4764 1.38461 95.5478 1.99432C91.5675 3.2526 87.6343 4.49604 83.9521 2.87477C76.4595 -0.424208 67.673 -0.665852 60.0105 2.21634C59.3329 2.47121 58.6445 2.74967 57.9494 3.03087C54.1239 4.57843 50.0932 6.20902 46.5196 4.44749C42.219 2.32756 37.0036 3.56747 32.6915 5.66399C31.1778 6.39995 29.7087 7.23714 28.2408 8.07362C25.5271 9.62002 22.8176 11.164 19.8383 12.0617C26.5617 16.1824 34.1755 18.8417 42.0024 19.8029C42.9638 20.5457 42.628 22.1972 41.6689 22.943C40.7099 23.6888 39.413 23.7834 38.1999 23.8482C38.5122 26.0097 41.2972 27.3786 43.1994 26.3055C42.4 26.454 42.3404 25.1555 42.6725 24.4133L44.7447 19.7823C46.3541 20.3732 48.3571 19.4251 48.9202 17.8057C44.9348 18.2854 40.7995 18.7521 36.9816 17.5122C33.1637 16.2723 29.7524 12.8133 29.9314 8.80311C38.4336 3.87703 49.8475 4.54404 57.718 10.4269C57.1103 8.6533 55.6165 7.20841 53.8237 6.66002C55.8937 4.62213 58.6415 3.28473 61.5224 2.91292C59.811 4.26702 59.0267 6.68789 59.6189 8.78834L67.3032 1.72074C66.0426 3.98058 65.3366 6.54708 65.2638 9.13368C68.1137 7.27131 70.3842 4.53536 71.6893 1.39096L75.1078 1.87092C73.015 3.63911 71.8491 6.44873 72.0751 9.17916C74.6797 7.55984 76.6991 5.02004 77.6898 2.11746C80.8996 2.63602 84.0169 3.72256 86.8536 5.31156ZM181.279 130.426H181.279H181.279H181.278H181.278H181.278H181.278H181.278H181.278H181.278H181.277H181.277H181.277H181.277H181.277H181.277H181.277H181.277H181.276H181.276H181.276H181.276H181.276H181.276H181.276H181.275H181.275H181.275H181.275H181.275H181.275H181.275H181.274H181.274H181.274C179.557 130.369 177.839 130.312 176.131 130.361C163.405 130.722 151.573 136.921 141.073 144.12L140.837 144.283L140.631 144.424C138.639 145.794 136.627 147.178 134.352 147.987L131.68 140.199C131.537 139.781 131.448 139.207 131.837 138.996C135.923 136.787 139.654 133.923 142.844 130.546C144.969 128.297 146.855 125.825 148.738 123.355C151.405 119.859 154.067 116.368 157.401 113.522C162.725 108.979 169.427 106.379 176.152 104.439C181.128 103.004 186.343 101.878 191.463 102.666C196.582 103.455 201.622 106.51 203.499 111.337C204.99 115.171 204.261 119.694 201.964 123.107C199.666 126.52 195.937 128.842 191.94 129.817C188.464 130.664 184.874 130.545 181.279 130.426ZM34.8533 146.924C35.1223 147.564 35.2921 148.418 34.7549 148.858C34.063 149.425 33.0814 148.694 32.5 148.015L27.5446 142.224C26.3583 145.308 25.814 148.637 25.9566 151.939C25.9852 152.601 26.0392 153.274 26.0934 153.949C26.3005 156.527 26.5103 159.14 25.3161 161.376C24.7923 162.357 23.9009 163.257 22.7913 163.329C22.1624 163.37 21.55 163.14 20.9695 162.894C19.3786 162.221 17.8109 161.395 16.2437 160.568C12.2096 158.44 8.17864 156.314 3.76122 156.821C3.15797 156.89 2.40675 157.188 2.4303 157.795C2.44086 158.067 2.6181 158.3 2.79046 158.51C9.15933 166.288 19.1189 170.06 28.76 172.908C30.3368 173.374 31.9986 173.828 33.6043 173.474C35.2099 173.12 36.7003 171.672 36.5065 170.04C35.9935 165.72 37.3469 161.211 40.1539 157.887C41.2744 156.561 42.6912 155.38 44.3915 155.027C46.48 154.593 48.5212 155.454 50.5313 156.301L50.532 156.301C51.0482 156.519 51.5624 156.736 52.0749 156.929C56.0044 158.415 60.4212 158.577 64.449 157.383C62.8743 157.363 62.118 155.475 61.7916 153.934C59.6771 143.953 58.553 133.762 58.441 123.56C58.4289 122.451 57.6507 121.47 56.7121 120.879C55.9175 120.378 55.0116 120.1 54.1107 119.823L54.1098 119.822L54.1088 119.822L54.1079 119.822L54.1069 119.821C53.9448 119.772 53.7829 119.722 53.6219 119.671C50.3415 118.632 47.2504 116.998 44.5438 114.873C44.2028 114.605 43.8668 114.329 43.5308 114.053L43.5307 114.053C42.4948 113.201 41.4581 112.349 40.2689 111.739C38.694 110.931 36.7448 110.602 35.1663 111.403C34.8142 112.242 35.4509 113.217 36.2657 113.622C36.8828 113.929 37.574 114.012 38.2637 114.095C38.4847 114.122 38.7055 114.148 38.9237 114.182C39.9611 114.343 40.9708 114.681 41.8963 115.177C42.8686 115.697 43.7893 117.072 42.9229 117.755C42.5676 118.034 42.0696 118.015 41.6185 117.982L36.5303 117.608C37.7707 120.982 39.3521 124.232 41.2426 127.29C41.4124 127.565 41.6389 127.87 41.9617 127.873C46.9467 127.918 52.5134 128.615 55.6724 132.472C56.2712 133.203 56.7624 134.259 56.249 135.053C53.3532 131.556 48.8237 129.474 44.2844 129.552C39.7451 129.63 35.2901 131.868 32.5168 135.462C34.9646 137.101 36.9105 139.478 38.0323 142.202C38.371 143.024 38.3087 144.37 37.4193 144.351L32.078 137.811C31.8393 137.519 31.5526 137.202 31.1754 137.19C30.8729 137.181 30.6064 137.374 30.3664 137.559C29.8469 137.958 29.3077 138.381 29.0365 138.978C28.7653 139.574 28.8662 140.395 29.4312 140.727C31.839 142.141 33.7713 144.35 34.8533 146.924ZM95.7482 157.159C99.1783 154.298 100.297 149.586 101.218 145.215L104.594 129.199C104.63 129.028 104.671 128.846 104.794 128.722C104.957 128.558 105.211 128.54 105.442 128.533C111.595 128.347 118.145 128.934 123.101 132.585C121.079 133.587 119.311 135.098 118.006 136.94C117.64 137.457 117.335 138.234 117.806 138.657C117.982 138.815 118.229 138.871 118.466 138.888C119.647 138.972 120.726 138.234 121.589 137.424C121.775 137.249 121.958 137.068 122.141 136.887C122.807 136.229 123.475 135.567 124.32 135.18C125.397 134.687 126.892 134.826 127.487 135.85C125.566 136.828 123.984 138.456 123.06 140.403C122.819 140.91 122.62 141.496 122.815 142.022C123.01 142.548 123.777 142.857 124.154 142.441L127.864 138.345C128.043 138.147 128.293 137.929 128.544 138.021C128.679 138.07 128.768 138.199 128.845 138.32C130.812 141.406 131.593 144.999 132.378 148.607C132.838 150.72 133.299 152.838 133.999 154.862C134.56 156.485 135.644 158.307 137.361 158.308C138.309 158.309 139.148 157.725 139.9 157.146C140.702 156.526 141.501 155.876 142.303 155.223C146.077 152.152 149.936 149.012 154.688 148.636C155.437 148.576 156.398 148.742 156.574 149.472C156.676 149.897 156.448 150.324 156.22 150.696C152.688 156.478 147.39 161.036 141.536 164.449C138.54 166.196 135.254 167.696 131.785 167.723C128.316 167.75 124.643 165.977 123.332 162.765C123.065 162.11 122.901 161.418 122.738 160.727C122.549 159.928 122.36 159.13 122.011 158.389C121.112 156.482 119.118 155.139 117.012 155.022C115.007 154.911 113.163 155.804 111.323 156.696C110.677 157.009 110.031 157.322 109.379 157.591C105.048 159.376 99.9567 159.215 95.7482 157.159ZM72.8513 122.678C71.5602 123.78 69.8234 124.22 68.1307 124.344C65.0808 124.568 61.9686 123.854 59.3213 122.323L60.4135 126.458C60.4606 126.636 60.5167 126.828 60.6647 126.937C60.7932 127.033 60.9633 127.045 61.1231 127.053L76.8185 127.878C79.1067 127.998 81.3979 128.119 83.6882 128.052C90.1124 127.867 96.4889 126.19 102.173 123.19C102.501 123.017 102.835 122.833 103.071 122.547C103.353 122.207 103.464 121.76 103.558 121.329C104.354 117.677 104.492 113.883 103.963 110.183C103.833 109.274 103.651 108.342 103.141 107.579C102.63 106.816 101.711 106.259 100.809 106.431C91.5722 108.189 82.1431 107.646 72.7148 107.103L72.7143 107.103L72.7138 107.103L72.7132 107.103L72.7127 107.103L72.7122 107.103L72.7117 107.103L72.7111 107.103L72.7106 107.103L72.7101 107.103L72.7095 107.103L72.709 107.103L72.7085 107.103L72.708 107.103L72.7074 107.103L72.7069 107.103L72.7064 107.103L72.7059 107.103L72.7053 107.102L72.7048 107.102L72.7043 107.102L72.7038 107.102L72.7032 107.102L72.7027 107.102L72.7022 107.102L72.7017 107.102L72.7011 107.102L72.7006 107.102L72.7001 107.102L72.6995 107.102L72.699 107.102L72.6985 107.102C69.1505 106.898 65.6026 106.693 62.0652 106.612C61.4327 106.597 60.7673 106.594 60.2117 106.897C59.6561 107.2 59.2736 107.918 59.559 108.483C61.1746 111.679 64.5126 113.719 67.9737 114.639C68.2223 114.705 68.4767 114.77 68.7341 114.835C70.973 115.405 73.4386 116.032 74.2516 118.116C74.8685 119.697 74.1424 121.576 72.8513 122.678ZM98.0335 149.768C97.4003 152.282 96.0694 154.89 93.6544 155.832C92.8096 156.162 91.8949 156.26 90.9919 156.345C82.6193 157.124 74.1572 156.936 65.8275 155.786C65.3315 155.718 64.8086 155.634 64.4221 155.316C63.9513 154.929 63.7917 154.287 63.6683 153.69C63.2901 151.86 62.9971 150.012 62.7904 148.154C62.7539 147.825 62.8451 147.356 63.1751 147.382C68.5053 147.796 73.8507 148.014 79.1969 148.034C82.8848 148.049 86.6019 147.965 90.2038 147.173C93.8056 146.381 97.3174 144.833 99.9506 142.251C99.202 143.823 98.8798 145.54 98.5571 147.26L98.5571 147.26C98.3993 148.101 98.2414 148.942 98.0335 149.768ZM80.026 139.328C79.6843 139.661 79.3167 140.056 79.3408 140.532C79.3648 141.009 80.0794 141.364 80.3259 140.956C81.6712 138.727 84.0108 137.125 86.575 136.676C89.1391 136.227 91.8839 136.94 93.9062 138.579C94.1163 138.749 94.3196 138.929 94.523 139.109C95.0024 139.534 95.4816 139.959 96.0477 140.252C96.3379 140.403 96.8345 140.407 96.8465 140.08C96.8505 139.973 96.7891 139.875 96.7288 139.786C95.2767 137.646 93.1052 136.003 90.6506 135.187C88.499 134.472 86.0058 134.427 84.0815 135.626C83.3827 136.062 82.7867 136.641 82.1967 137.215L80.026 139.328ZM61.952 138.111C63.807 136 66.8062 135.065 69.5919 135.434C72.3776 135.802 74.9255 137.371 76.7764 139.486C77.1025 139.858 77.4222 140.394 77.1579 140.812C76.9365 141.163 76.4072 141.188 76.0436 140.989C75.7263 140.815 75.4998 140.522 75.277 140.234C75.2444 140.192 75.212 140.15 75.1793 140.108C73.5408 138.024 70.8637 136.8 68.2155 136.925C65.5672 137.05 63.0172 138.52 61.5823 140.749C61.2085 140.424 61.1028 139.866 61.2153 139.384C61.3278 138.901 61.625 138.483 61.952 138.111ZM89.2416 132.582C89.1984 133.053 89.8206 133.346 90.2678 133.192C90.6703 133.053 90.9506 132.705 91.221 132.37C91.251 132.333 91.2809 132.296 91.3109 132.259C93.8012 129.214 98.5432 128.296 101.99 130.193C102.442 129.811 102.468 129.079 102.165 128.57C101.863 128.062 101.31 127.749 100.747 127.569C99.5258 127.179 98.2002 127.312 96.9439 127.566C93.9706 128.168 90.967 129.577 89.4039 132.177C89.3284 132.303 89.2549 132.436 89.2416 132.582ZM73.9901 143.309C75.134 142.872 76.3301 142.548 77.552 142.463C80.5753 142.253 83.6653 143.611 85.5552 145.98C84.75 146.555 83.6899 145.855 82.8625 145.309L82.8544 145.304C80.2138 143.56 76.6062 143.404 73.8249 144.913C73.6079 145.031 73.389 145.159 73.1682 145.288C72.1279 145.897 71.0464 146.531 69.9268 146.214C70.8523 144.796 72.409 143.915 73.9901 143.309ZM83.8973 140.8L83.8975 140.8C84.3039 140.489 84.7105 140.177 85.1596 139.934C86.4258 139.25 88.0031 139.17 89.3315 139.725C89.719 139.887 90.0827 140.098 90.4465 140.309C90.7598 140.491 91.0732 140.673 91.4021 140.823C92.1129 141.149 92.9594 141.318 93.6675 140.986C93.7461 140.95 93.8274 140.901 93.8606 140.821C93.9144 140.691 93.8187 140.55 93.7259 140.444C92.1415 138.636 89.6587 137.656 87.266 137.895C84.8734 138.133 82.6333 139.585 81.4376 141.671C81.6871 142 82.2065 141.89 82.5724 141.699C83.0464 141.452 83.4718 141.126 83.8973 140.8ZM64.8609 141.131C64.5911 141.37 64.3217 141.608 64.0096 141.785C63.513 142.068 62.8444 142.163 62.3953 141.81C62.2564 141.063 63.0099 140.483 63.6661 140.1C65.284 139.156 67.0229 138.18 68.8936 138.277C70.3902 138.354 71.7564 139.112 73.049 139.87C73.3668 140.057 73.6929 140.252 73.9101 140.55C74.1273 140.847 74.2088 141.276 74.0058 141.583C73.8006 141.894 73.3686 141.986 73.0059 141.901C72.6568 141.82 72.3546 141.61 72.0597 141.405L72.0595 141.405L72.0252 141.381C70.9793 140.655 69.8389 139.986 68.5743 139.839C67.4395 139.707 66.2567 140.027 65.3488 140.72C65.1801 140.849 65.0205 140.99 64.8611 141.131L64.8609 141.131ZM72.4348 134.534C72.7725 134.971 73.4338 134.502 73.8067 134.095C74.9552 132.84 76.6107 132.063 78.3099 131.982C80.0091 131.9 81.7314 132.515 82.9948 133.654C83.0206 133.677 83.0464 133.701 83.0724 133.724C83.3684 133.994 83.6842 134.282 84.0785 134.292C84.5074 134.304 84.8939 133.705 84.5536 133.444C82.7322 132.044 80.6129 130.901 78.321 130.75C76.029 130.599 73.5589 131.627 72.4978 133.664C72.3556 133.937 72.2467 134.29 72.4348 134.534ZM93.3529 133.634C93.1564 133.837 92.9573 134.042 92.6996 134.151C92.3972 134.279 91.9817 134.217 91.8356 133.923C91.6812 133.612 91.8968 133.25 92.1215 132.986C94.3271 130.39 98.4786 129.718 101.391 131.484C101.837 131.754 102.305 132.279 102.042 132.73C101.728 133.27 100.913 132.925 100.372 132.612C98.2064 131.359 95.2189 131.756 93.4554 133.53L93.4217 133.564L93.3572 133.63L93.3529 133.634ZM94.3095 134.317C94.1843 134.422 94.0595 134.539 94.0068 134.694C93.8596 135.125 94.3836 135.528 94.8378 135.492C95.1665 135.466 95.4596 135.306 95.7526 135.146C95.8645 135.085 95.9763 135.024 96.0902 134.97C97.0949 134.496 98.3023 134.609 99.3221 135.049C99.4188 135.091 99.5147 135.136 99.6107 135.18C99.9154 135.322 100.221 135.464 100.551 135.514C100.986 135.579 101.493 135.435 101.69 135.043C99.9623 132.901 96.4217 132.553 94.3095 134.317ZM67.7596 133.361C67.5936 133.593 67.2417 133.616 66.9838 133.495C66.7441 133.383 66.5645 133.178 66.3891 132.978L66.349 132.933C65.1376 131.559 63.5679 130.504 61.8383 129.901C61.3891 129.744 60.8184 129.433 60.9446 128.974C62.1863 128.55 63.5905 128.883 64.7054 129.575C65.8203 130.266 66.6928 131.282 67.5039 132.313C67.7435 132.618 67.9853 133.046 67.7596 133.361ZM82.268 134.646C80.2269 133.345 77.4409 133.322 75.3787 134.59C75.0203 134.81 74.652 135.12 74.6242 135.54C74.5964 135.96 75.1664 136.349 75.4491 136.038C76.5884 134.782 78.6699 134.521 80.0835 135.458C80.7776 135.917 81.7743 135.854 82.4053 135.311C82.7032 135.28 82.5205 134.807 82.268 134.646ZM89.4118 145.204C91.5169 143.2 94.2155 141.494 97.1157 141.689C97.4139 141.71 97.814 141.961 97.6338 142.199L90.4419 145.312C90.0877 145.465 89.565 145.559 89.4118 145.204ZM69.721 143.104L69.7258 143.107C70.0115 143.282 70.3012 143.458 70.6299 143.459C71.0398 143.459 71.4463 142.965 71.1863 142.648C70.3674 141.65 69.0803 141.053 67.7891 141.073C66.4979 141.092 65.2297 141.729 64.4417 142.752C64.5388 143.123 64.9938 143.295 65.374 143.239C65.6481 143.199 65.8987 143.077 66.1493 142.954C66.2463 142.907 66.3434 142.859 66.4418 142.817C67.4172 142.394 68.5893 142.457 69.5139 142.981L69.543 142.998L69.5657 143.011C69.5851 143.022 69.6044 143.034 69.6238 143.046C69.6562 143.065 69.6886 143.085 69.721 143.104ZM84.4731 143.197C84.1862 143.213 83.8626 142.994 83.8951 142.709C83.9072 142.603 83.9645 142.509 84.0251 142.422C84.6899 141.466 85.8916 140.977 87.0562 140.966C88.2207 140.955 89.3526 141.368 90.3808 141.915C90.6677 142.068 90.9905 142.311 90.9441 142.632C90.4676 143.139 89.6785 142.867 88.9906 142.63L88.9903 142.63C88.9141 142.604 88.8391 142.578 88.7659 142.554C87.6213 142.174 86.3203 142.293 85.2638 142.875C85.2275 142.895 85.1911 142.915 85.1547 142.936C84.9386 143.059 84.7186 143.183 84.4731 143.197ZM81.7305 130.178C82.9293 130.607 84.0459 131.265 85.0025 132.105C85.0686 132.163 85.1343 132.222 85.2 132.282L85.2008 132.282L85.2016 132.283C85.5274 132.577 85.8552 132.872 86.2527 133.052C86.7311 133.268 87.352 133.273 87.7265 132.905C86.898 132.27 86.2174 131.443 85.7533 130.508C85.5033 130.004 84.8368 129.912 84.275 129.884L81.8119 129.764C81.7252 129.88 81.6944 130.037 81.7305 130.178ZM71.6928 132.291C71.4818 132.56 71.2711 132.828 71.0219 133.061C70.598 133.457 70.0133 133.747 69.4469 133.622C70.0225 132.226 70.9526 130.978 72.1259 130.027C72.9636 129.348 74.1756 129.497 75.2379 129.682C75.2945 130.066 74.8015 130.257 74.4266 130.358C73.5575 130.589 72.7576 131.074 72.1502 131.738C71.9888 131.914 71.8407 132.103 71.6928 132.291ZM61.5795 132.58L63.8633 134.068C64.1855 134.278 64.597 134.493 64.9313 134.303C65.2416 134.126 65.289 133.671 65.1273 133.353C64.9656 133.035 64.6572 132.822 64.3612 132.623L62.5018 131.371C61.9828 131.021 61.1373 130.742 60.8549 131.301C60.6115 131.782 61.1275 132.285 61.5795 132.58ZM78.6772 138.967C78.3071 139.144 77.899 138.831 77.6077 138.542L76.657 137.599C76.5453 137.488 76.4247 137.353 76.4441 137.197C76.4564 137.099 76.5232 137.016 76.5918 136.945C77.4845 136.01 79.1806 136.036 80.0447 136.997L79.0546 138.562C78.9546 138.72 78.846 138.886 78.6772 138.967ZM64.2864 146.001C64.9055 146.218 65.6362 146.282 66.1822 145.918C65.3602 144.973 64.3969 144.151 63.334 143.488C63.0325 143.3 62.6926 143.118 62.3408 143.168C61.9889 143.218 61.6775 143.618 61.8479 143.93C62.3708 144.887 63.2572 145.64 64.2864 146.001ZM99.1296 137.342L98.2518 138.402C98.1686 138.503 98.0757 138.61 97.9481 138.637C97.755 138.679 97.5792 138.527 97.4404 138.386L96.1662 137.095C95.9788 136.905 96.0325 136.566 96.2187 136.375C96.4049 136.184 96.6808 136.112 96.9457 136.08C97.6382 135.997 98.3561 136.14 98.964 136.482C99.1388 136.58 99.3225 136.724 99.3305 136.925C99.3368 137.083 99.2304 137.22 99.1296 137.342ZM67.7233 130.765C67.9857 131.047 68.3154 131.337 68.6996 131.305C69.0978 131.272 69.3656 130.923 69.6289 130.58C69.9106 130.213 70.1871 129.852 70.6125 129.893C70.8335 129.528 70.2304 129.237 69.8043 129.23L66.4966 129.178C66.8565 129.742 67.2677 130.274 67.7233 130.765ZM81.4133 146.232L74.5327 146.262C74.6073 145.906 75.0082 145.735 75.3594 145.639C76.9282 145.214 78.5971 145.164 80.1887 145.494C80.6742 145.594 81.2123 145.779 81.4133 146.232ZM88.694 143.848L86.4175 143.951C86.1725 143.962 85.8581 144.033 85.8279 144.277C85.8144 144.386 85.869 144.49 85.9219 144.586C86.1225 144.95 86.336 145.329 86.6829 145.559C87.0299 145.788 87.552 145.811 87.822 145.494C87.9149 145.385 87.9694 145.249 88.0235 145.114C88.09 144.947 88.1559 144.782 88.2918 144.671C88.382 144.597 88.4918 144.557 88.6021 144.517L88.6022 144.517C88.6865 144.486 88.771 144.455 88.8472 144.409C89.0231 144.302 89.135 144.026 88.972 143.901C88.8955 143.842 88.7903 143.844 88.694 143.848ZM68.7401 144.15C69.056 144.354 69.2478 144.802 69.0451 145.118C68.8023 145.497 68.4992 145.914 68.0515 145.959C67.4738 146.016 67.0601 145.434 66.7788 144.926C66.683 144.753 66.584 144.562 66.6194 144.368C66.6938 143.959 67.2396 143.883 67.6541 143.904C68.0294 143.922 68.4242 143.947 68.7401 144.15ZM99.0223 140.567C99.3629 140.595 99.6682 140.364 99.9071 140.12C100.636 139.375 101.099 138.375 101.197 137.338C100.956 137.184 100.661 137.423 100.476 137.641L98.6147 139.843C98.3941 140.103 98.6818 140.539 99.0223 140.567ZM62.5632 135.674C62.0755 135.937 61.408 135.802 61.062 135.369C60.7159 134.936 60.7308 134.255 61.0955 133.837C61.1461 133.779 61.2065 133.724 61.2818 133.708C61.3911 133.686 61.497 133.752 61.5892 133.814L62.4944 134.432C62.7033 134.574 62.9298 134.743 62.974 134.992C63.0236 135.271 62.8129 135.539 62.5632 135.674ZM87.8619 130.798C88.2242 131.102 88.7613 130.788 89.1209 130.48L90.2916 129.48C90.0707 129.269 89.7178 129.317 89.4187 129.379L86.8122 129.917L87.8619 130.798ZM35.1684 107.873C34.9022 107.636 34.834 107.25 34.8261 106.894C34.817 106.492 34.8641 106.089 34.9655 105.7L36.6931 107.949C36.7962 108.083 36.8808 108.314 36.7285 108.388C36.5125 108.243 36.247 108.202 35.9831 108.161C35.6846 108.114 35.3883 108.069 35.1684 107.873ZM101.506 126.536C101.724 126.808 102.185 126.75 102.436 126.506C102.686 126.263 102.779 125.904 102.851 125.562C102.868 125.479 102.884 125.391 102.85 125.314C102.762 125.119 102.473 125.178 102.28 125.268C101.759 125.511 101.146 126.088 101.506 126.536ZM81.9555 27.0983C82.167 26.5702 82.6591 26.2136 83.1438 25.9159C84.6065 25.0175 86.2308 24.3831 87.9152 24.0522C88.3183 23.9731 88.7984 23.9344 89.0783 24.2352C89.393 24.5735 89.2356 25.1586 88.8862 25.4611C88.575 25.7305 88.1653 25.841 87.7647 25.9492C87.7156 25.9624 87.6667 25.9756 87.6181 25.9891C86.271 26.3621 85.0037 27.0207 83.9242 27.9088C83.5093 28.2502 83.0174 28.6524 82.4996 28.5085C81.9515 28.3562 81.744 27.6263 81.9555 27.0983ZM51.6563 27.2218C51.2652 27.0101 51.0012 26.4818 51.2445 26.1096C51.386 25.8931 51.6499 25.7944 51.9007 25.7308C53.9315 25.2153 56.0341 26.1253 57.871 27.1332C58.2845 27.3601 58.7101 27.6072 58.9708 28.0003C59.2315 28.3934 59.2696 28.9759 58.9295 29.3027C58.3602 29.8496 57.4577 29.287 56.815 28.8285C55.6896 28.0256 54.3373 27.5445 52.9577 27.4559C52.8961 27.452 52.8341 27.4487 52.7719 27.4454C52.3859 27.425 51.9931 27.4041 51.6563 27.2218ZM72.9459 56.3385L71.6101 52.5285C70.4212 53.3866 69.5324 54.6524 69.1289 56.062C68.7639 55.7652 68.7504 55.2633 68.7372 54.7705C68.7332 54.6231 68.7293 54.4766 68.716 54.3366C68.6371 53.5061 68.1155 52.7306 67.376 52.3444C66.6364 51.9582 65.702 51.9734 64.9753 52.3833C65.168 52.8051 65.6221 52.939 66.0896 53.0768C66.4 53.1683 66.7163 53.2616 66.9659 53.442C67.493 53.8232 67.644 54.5414 67.6521 55.1918C67.6542 55.3549 67.65 55.5193 67.6458 55.6837C67.6333 56.175 67.6208 56.6671 67.7742 57.1297C67.8238 57.279 67.894 57.4279 68.015 57.5286C68.3577 57.8137 68.8765 57.5768 69.2235 57.297C70.0075 56.665 70.6239 55.8271 70.9939 54.8906C71.3203 55.2166 71.4408 55.6745 71.5605 56.1288C71.5956 56.2621 71.6306 56.3952 71.6708 56.5246C71.8477 57.0945 72.2707 57.7036 72.8668 57.676C73.264 57.6576 73.5841 57.3586 73.8654 57.0775L75.4816 55.463C75.6763 55.2684 75.8876 55.021 75.8249 54.7529C75.7647 54.4956 75.4597 54.3577 75.198 54.3947C74.9363 54.4317 74.7125 54.5966 74.5077 54.7637C73.9338 55.2319 73.4093 55.7607 72.9459 56.3385ZM69.2541 41.0559C69.3403 40.3576 69.3877 39.544 68.8746 39.0625C67.9174 38.1641 67.079 37.1391 66.3882 36.0226C66.0869 35.5358 65.8041 34.9669 65.9476 34.4127C66.1645 33.5755 67.1822 33.2728 68.0406 33.1682C69.4141 33.001 70.8044 32.9726 72.1834 33.0836C72.7761 33.1313 73.4042 33.2203 73.8577 33.6048C74.3113 33.9892 74.4749 34.7686 74.0372 35.1709C71.8915 37.1434 70.635 40.0489 70.6676 42.9633C71.4632 43.4797 72.2718 44.0024 73.1783 44.2817C74.0847 44.5611 75.1178 44.5702 75.9354 44.0894C76.2797 43.8869 76.5686 43.6099 76.858 43.3323L76.858 43.3322C77.0578 43.1406 77.2579 42.9486 77.4768 42.7808C78.0126 42.3699 78.7796 42.1153 79.3537 42.4707L77.1694 44.4819C76.2989 45.2833 75.2178 46.1454 74.0657 45.8756C73.6842 45.7862 73.3491 45.5798 73.0129 45.3727C72.8128 45.2494 72.6123 45.1259 72.4013 45.0266C71.273 44.4957 69.9493 44.6941 68.7302 44.9558L68.507 45.004C67.3565 45.2533 66.1659 45.5113 65.0366 45.2015C63.8342 44.8716 62.7794 43.6217 63.1557 42.433C63.9127 43.5409 65.2307 44.2431 66.5725 44.2534C67.0877 44.2573 67.6189 44.1587 68.0458 43.8701C68.9195 43.2795 69.1249 42.1026 69.2541 41.0559Z" fill="#00160A"/>
</svg>
