<svg width="142" height="114" viewBox="0 0 142 114" fill="none" xmlns="http://www.w3.org/2000/svg">
<path opacity="0.9" d="M103.189 5.78447C101.808 2.09734 100.367 -1.74964 90.612 0.852387C85.374 2.24958 80.9833 7.18599 77.394 14.5168C74.6934 20.3469 72.4117 27.8859 70.5915 36.9251C66.8722 55.3956 65.3054 79.2886 66.0378 102.519L64.4146 102.57L64.3932 101.869C63.8978 85.0947 64.5933 68.0069 66.4282 52.8572C58.6217 44.7435 49.7238 38.3485 43.2397 36.2244C27.8745 32.8363 23.8152 41.7874 23.9159 49.772C23.9343 51.2321 24.4445 52.4464 24.9585 53.6697C25.49 54.9347 26.0255 56.2092 26.0255 57.7749C26.0255 58.8133 23.7034 60.9583 20.6848 63.7465C14.7503 69.2281 6.12409 77.1961 7.15944 84.1302C8.11623 90.5383 14.1839 95.4041 19.7689 98.0201C20.3157 98.2762 20.9112 98.752 21.6278 99.3246C22.1374 99.7318 22.7082 100.188 23.3663 100.649L23.4168 100.684C23.9337 101.04 24.7869 101.542 25.9762 102.191L26.3431 102.39C43.1689 111.467 62.6965 105.351 68.7815 103.094L69.1372 102.961L112.288 102.481L112.283 102.447C112.271 102.377 112.252 102.272 112.227 102.137C111.821 99.939 109.916 89.6132 113.973 85.4519C126.641 72.457 140.533 35.2677 121.645 19.6838C117.472 16.2399 113.33 14.1463 110.149 12.5384C108.217 11.5619 106.64 10.7645 105.625 9.95258C104.375 8.95274 103.787 7.38364 103.189 5.78447Z" fill="#75C3EE" fill-opacity="0.2"/>
<path fill-rule="evenodd" clip-rule="evenodd" d="M29.9605 104.714C29.0648 105.23 29.4297 105.767 31.3614 106.624C33.4458 107.561 37.3252 109.371 43.9884 109.881C54.3089 110.67 63.7056 109.181 75.5681 109.181C91.9909 109.181 99.1997 112.789 104.948 111.957C120.356 109.726 123.847 105.396 119.25 104.279C114.203 103.053 98.1626 103.203 92.7628 102.85L91.0917 102.743L89.6562 102.707C74.1139 102.325 49.2007 102.707 44.3351 102.707C34.4092 102.707 29.9605 104.714 29.9605 104.714Z" fill="#F2F3F7"/>
<path fill-rule="evenodd" clip-rule="evenodd" d="M75.5674 109.181C91.9902 109.181 99.199 112.914 104.947 112.082C120.355 109.851 123.846 105.397 119.249 104.28C114.203 103.053 95.8696 102.655 91.3554 102.752C91.3554 102.752 112.108 106.587 110.998 107.857C107.691 111.639 99.4578 107.069 84.5039 107.202C81.4232 107.23 75.5674 109.181 75.5674 109.181Z" fill="#E7EAEE"/>
<path fill-rule="evenodd" clip-rule="evenodd" d="M45.3198 102.869C44.9199 102.871 44.5989 102.872 44.3347 102.872L43.8817 102.873C37.4287 102.903 32.7221 103.582 29.7419 104.926L29.6953 104.95C28.9992 105.351 28.7325 105.941 29.1699 106.548C29.4528 106.94 30.045 107.31 31.0445 107.76L31.8941 108.14C32.9543 108.609 33.5831 108.864 34.5272 109.196L34.6296 109.232C37.3527 110.183 40.3746 110.832 43.9475 111.106C46.4862 111.3 49.0734 111.367 51.9094 111.327L52.9022 111.31C54.7669 111.272 56.3554 111.206 59.2575 111.05L64.274 110.772C69.0541 110.514 71.9702 110.41 75.4132 110.407L75.5677 110.407C81.7295 110.407 86.7631 110.876 92.3461 111.79L92.8307 111.871C93.6718 112.017 98.2987 112.832 99.5762 113.016L99.6204 113.022C101.85 113.336 103.499 113.399 105.023 113.178L105.449 113.115C112.37 112.081 117.372 110.541 119.897 108.836C122.421 107.133 122.192 105.182 119.459 104.48L119.375 104.46C117.105 103.908 112.795 103.601 106.1 103.401L104.726 103.362C104.326 103.351 103.912 103.34 103.477 103.33L97.6481 103.195C95.4032 103.139 94.0268 103.092 92.9848 103.028L91.1253 102.909L89.6691 102.872L88.189 102.839C83.8968 102.749 78.7701 102.706 72.902 102.703L71.1573 102.703C67.0681 102.705 62.8357 102.725 58.1104 102.761L45.3198 102.869ZM74.2667 103.765C80.1236 103.775 85.202 103.827 89.4015 103.927L91.078 103.969L92.9843 104.091C94.0333 104.154 95.4068 104.201 97.6171 104.256L103.232 104.385C103.894 104.401 104.506 104.417 105.093 104.433L106.468 104.474C112.851 104.672 117 104.974 119.124 105.491L119.252 105.523C121.014 105.985 121.071 106.763 119.304 107.956C116.886 109.588 106.963 113.958 99.9502 112.468L99.6277 112.422C98.1455 112.202 93.1779 111.088 92.8852 111.039L92.1653 110.921C86.788 110.056 81.88 109.602 75.9636 109.582L75.1032 109.582C71.5653 109.592 68.5182 109.71 63.3406 109.996L59.7477 110.196C56.2725 110.386 54.6156 110.454 52.4536 110.493L52.2795 110.496C41.3147 110.921 34.6295 108.367 34.6295 108.367C33.7546 108.055 31.4905 107.268 31.4905 107.268L31.322 107.191C26.0399 105.398 37.5723 103.964 43.891 103.934L45.8607 103.927L57.3034 103.828C62.6304 103.787 67.3204 103.764 71.857 103.764L74.2667 103.765Z" fill="#302934"/>
<path fill-rule="evenodd" clip-rule="evenodd" d="M98.6337 95.2095C98.6337 95.2095 98.6059 96.7826 99.0902 97.5106C99.5744 98.2387 100.925 100.264 102.181 100.796C102.568 100.961 104.045 100.982 104.933 101.5C106.716 102.542 107.113 104.418 104.933 104.816C100.605 105.605 99.0902 103.324 99.0902 103.324C99.0902 103.324 97.3072 100.796 95.5203 99.1204C93.7333 97.4443 92.3097 96.9395 92.3097 96.9395" fill="#F2F3F7"/>
<path fill-rule="evenodd" clip-rule="evenodd" d="M93.5411 63.6685C93.5411 63.6685 92.354 60.2805 89.303 59.363C88.3335 59.0715 92.5741 65.4714 88.8314 67.8587C87.663 68.604 85.5858 68.9907 83.0296 69.3545C71.6351 70.9765 68.1997 66.7247 61.1658 64.6484C58.3454 63.8158 44.6268 60.1329 42.5526 78.8935C41.2543 90.6363 51.0879 94.2756 59.9005 96.1415C77.5549 99.8793 104.607 98.4061 113.044 86.0864C123.1 71.4009 107.643 58.6121 105.466 57.2603C104.938 56.9329 106.451 61.1297 106.619 63.2524C106.787 65.3751 105.466 66.147 105.466 66.147C105.466 66.147 104.945 63.8997 100.342 63.5141C95.7397 63.1285 93.5411 63.6685 93.5411 63.6685Z" fill="#F2F3F7"/>
<path fill-rule="evenodd" clip-rule="evenodd" d="M45.2323 69.6174C45.2323 69.6174 46.0116 68.5345 46.4497 67.9968C46.8878 67.459 47.3574 67.0089 47.3574 67.0089C47.3574 67.0089 36.7764 65.9559 33.1112 63.2278C28.3252 59.6654 24.0321 53.7569 19.7076 52.5071C14.5377 51.0131 12.6243 54.4784 11.1332 54.7609C6.59061 55.6216 -1.72906 58.0709 2.0752 65.4687C3.24969 67.7526 7.05435 68.8146 9.73471 67.5413C12.7266 66.1201 16.4111 62.6387 20.2861 62.6387C24.7671 62.6387 25.5473 66.3097 31.2357 68.256C34.727 69.4505 45.2323 69.6174 45.2323 69.6174Z" fill="#F2F3F7"/>
<path fill-rule="evenodd" clip-rule="evenodd" d="M57.8315 95.7954C57.8315 95.7954 60.4147 98.6152 61.485 100.429C62.5554 102.243 62.1804 103.227 63.6663 104.066C65.8986 105.325 68.1995 105.007 69.2233 104.338C70.2472 103.668 69.2866 101.953 67.1406 101.953C66.6127 101.953 65.9917 100.741 65.6911 99.9393C65.3905 99.1374 65.5281 97.1638 65.5281 97.1638L57.8315 95.7954Z" fill="#F2F3F7"/>
<path fill-rule="evenodd" clip-rule="evenodd" d="M105.945 57.9697C105.945 57.9697 122.776 78.6132 99.1067 90.7307C82.5533 99.2055 55.3569 94.6299 55.3569 94.6299C55.3569 94.6299 84.9634 102.589 104.314 92.9933C116.661 86.8704 119.103 76.4628 113.213 65.8663C111.671 63.0933 105.945 57.9697 105.945 57.9697Z" fill="#E7EAEE"/>
<path fill-rule="evenodd" clip-rule="evenodd" d="M104.956 56.9404C105.168 56.6595 105.498 56.6559 105.745 56.8091C106.54 57.3023 107.977 58.4961 109.36 59.8963C111.279 61.8399 112.992 64.0421 114.306 66.4159C117.904 72.915 117.582 79.7191 113.017 86.3859C108.981 92.2787 101.086 95.8353 90.0037 97.4284C80.3103 98.8218 69.0886 98.6289 59.7901 96.6602L59.3238 96.56C54.0023 95.3983 50.0792 93.9225 47.1112 91.6418C43.2182 88.6503 41.4023 84.4643 42.0247 78.8348C42.9668 70.3135 46.3357 65.5778 51.4141 63.9187C53.302 63.302 55.3241 63.1504 57.411 63.3563C58.8418 63.4975 60.0435 63.7636 61.3156 64.1391L61.5417 64.2067C62.9237 64.6258 64.0998 65.0885 65.9137 65.8922L67.2547 66.4929C70.0333 67.7384 71.6413 68.3291 73.7228 68.7488C76.3421 69.277 79.2262 69.3392 82.7253 68.8608L83.2444 68.787C86.1006 68.3706 87.6337 67.9926 88.5455 67.411C89.613 66.7301 89.994 65.6266 89.8414 64.0986C89.772 63.4034 89.5993 62.6703 89.3269 61.8154L89.2518 61.5849C89.1342 61.2357 88.7906 60.2545 88.7273 60.0411C88.649 59.777 88.613 59.5931 88.6259 59.422C88.658 58.9928 89.0344 58.7279 89.4554 58.8545C91.6808 59.5238 93.2792 61.4676 94.2608 64.6186C94.3479 64.8984 94.1918 65.1959 93.912 65.2831C93.6321 65.3703 93.3346 65.2141 93.2475 64.9343C92.5002 62.5355 91.409 60.9752 89.9801 60.213L89.8862 60.1645L90.2727 61.2913L90.2833 61.3235C91.2642 65.5068 90.5354 68.787 83.9375 69.8006C83.5744 69.8564 76.2782 70.4842 73.2488 69.7346C68.6595 68.5989 62.1464 64.3608 58.2417 64.2067C54.3371 64.0526 53.4785 64.3608 51.7437 64.9276C47.0889 66.4482 43.2173 71.3736 42.4361 79.5083C42.0235 83.8037 44.3438 88.156 48.1485 90.8372C57.8309 97.6604 80.2845 97.9853 89.8526 96.6099C100.67 95.0549 108.773 91.3824 112.605 85.7862C116.926 79.4763 116.793 73.0991 113.378 66.9299C112.115 64.6475 110.46 62.5207 108.605 60.6421C107.76 59.7864 106.896 59.0129 106.194 58.4488L106.076 58.3548L106.179 58.7592L106.508 60.0219L106.628 60.4949C106.646 60.5696 106.664 60.6425 106.682 60.7143L106.744 60.974C106.966 61.9069 107.101 62.6309 107.147 63.2102C107.274 64.8114 106.81 65.9753 105.733 66.6048C105.48 66.7527 105.155 66.6674 105.007 66.4144C104.859 66.1613 104.944 65.8364 105.198 65.6885C105.881 65.2889 106.186 64.523 106.089 63.294C106.048 62.7802 105.921 62.0997 105.71 61.2134L105.651 60.9665C105.625 60.861 105.598 60.7529 105.57 60.6401L105.107 58.8531C105.039 58.5825 104.987 58.3697 104.945 58.1845L104.933 58.1297C104.863 57.8078 104.826 57.5774 104.824 57.4038C104.821 57.2262 104.847 57.0848 104.956 56.9404Z" fill="#302934"/>
<path fill-rule="evenodd" clip-rule="evenodd" d="M93.4982 63.0834L93.8773 63.0194C96.3807 62.6066 98.4011 62.4573 99.945 62.5742C101.574 62.6975 103.3 63.1379 105.125 63.893C105.366 63.9926 105.48 64.2685 105.381 64.5092C105.281 64.7499 105.005 64.8643 104.764 64.7647C103.028 64.0461 101.398 63.6303 99.8737 63.5149C98.3421 63.3989 96.2677 63.5639 93.6582 64.0131C93.4015 64.0573 93.1575 63.885 93.1134 63.6282C93.0692 63.3715 93.2415 63.1275 93.4982 63.0834Z" fill="#302934"/>
<path fill-rule="evenodd" clip-rule="evenodd" d="M96.516 60.9666C97.6458 60.7346 98.6778 60.8546 99.5985 61.3301C100.48 61.7854 101.244 62.3581 101.888 63.0476C102.023 63.1918 102.015 63.418 101.871 63.5527C101.726 63.6875 101.5 63.6798 101.366 63.5356C100.778 62.9066 100.08 62.3834 99.2705 61.9652C98.5001 61.5673 97.6344 61.4666 96.6598 61.6668C96.4665 61.7065 96.2776 61.5819 96.2378 61.3886C96.1981 61.1953 96.3227 61.0063 96.516 60.9666Z" fill="#302934"/>
<path fill-rule="evenodd" clip-rule="evenodd" d="M98.8002 59.0954C98.9015 58.926 99.121 58.8708 99.2904 58.9721C100.197 59.5141 100.947 60.1205 101.54 60.7922C102.138 61.4704 102.63 62.3372 103.016 63.3907C103.084 63.576 102.989 63.7813 102.804 63.8493C102.619 63.9173 102.413 63.8222 102.345 63.6369C101.988 62.6624 101.54 61.8725 101.004 61.2652C100.462 60.6514 99.769 60.0912 98.9235 59.5855C98.7541 59.4842 98.6989 59.2648 98.8002 59.0954Z" fill="#302934"/>
<path fill-rule="evenodd" clip-rule="evenodd" d="M88.4445 67.5878C88.5939 67.3745 88.8881 67.3227 89.1014 67.4721C89.3148 67.6216 84.7607 74.1073 84.7607 75.3657C84.7607 76.7303 85.4309 77.6436 87.2165 79.084L87.9731 79.6856L88.1932 79.8621C89.3 80.7563 89.9446 81.3836 90.4926 82.1802C91.2585 83.2935 91.619 84.5364 91.5272 86.0105C91.4139 87.8288 90.8653 89.0852 89.7783 90.5352L89.6798 90.665C89.5576 90.8227 89.0196 91.51 88.8722 91.7112C88.3464 92.4294 88.0989 92.97 88.0538 93.6049C87.8554 96.4022 89.1717 99.7799 92.03 103.726C92.1829 103.937 92.1357 104.232 91.9248 104.384C91.7138 104.537 91.4189 104.49 91.266 104.279C88.2896 100.17 86.896 96.5942 87.1128 93.5382C87.1703 92.7276 87.4657 92.0559 88.0407 91.2511L88.1111 91.1538C88.2803 90.9228 88.8975 90.1354 88.9495 90.0672C89.985 88.7088 91.482 86.7213 90.2833 82.9392C89.6798 81.035 83.9496 79.6856 83.7612 75.6323C83.7168 74.6774 85.3087 72.064 88.4445 67.5878Z" fill="#302934"/>
<path d="M90.179 87.1982L89.5207 87.2053C85.6238 87.2552 83.2535 87.4517 82.5214 87.7656L82.4947 87.7775C81.418 88.2712 80.5711 88.9407 79.9237 89.7432C79.4209 90.3664 79.0657 91.0344 78.8334 91.7012C78.7642 91.9 78.7106 92.0858 78.6706 92.2549L78.6436 92.3749L79.7706 93.8193C79.7818 93.8337 79.7921 93.8486 79.8015 93.8639L79.8125 93.8793L79.848 93.9313C80.0915 94.2843 80.3679 94.6296 80.7235 95.0321L80.8873 95.2145C81.1794 95.5333 82.109 96.5353 82.4249 96.896C83.1006 97.6676 83.6697 98.4099 84.2148 99.2622C85.0456 100.561 85.7784 102.062 86.4362 103.879L86.4836 104.011L86.5308 104.148C86.5883 104.316 86.6445 104.489 86.7056 104.683L86.9833 105.594C87.3934 106.937 87.6799 107.554 88.1342 107.927L88.2105 107.988C88.8057 108.452 89.3605 108.567 90.903 108.615L91.3538 108.628C93.4042 108.684 94.4737 107.056 93.3004 105.873C92.9325 105.502 91.719 105.214 89.7341 105.093C89.4741 105.078 89.7183 104.408 89.7341 104.148C89.7499 103.888 89.9735 103.69 90.2335 103.705C90.4635 103.719 90.6843 103.735 90.8961 103.753C88.2673 99.9435 86.984 96.6968 87.1881 93.8193C87.2456 93.0087 87.1586 92.6915 87.7336 91.8867L87.8434 91.7362C88.0529 91.4566 88.5938 90.7664 88.6423 90.7028C89.085 90.1221 89.3934 89.6463 89.6408 89.1271L89.6895 89.0226L89.7059 88.9851L89.7333 88.9245C89.8635 88.6267 90.0012 88.1134 90.1416 87.3942L90.179 87.1982Z" fill="#F2F3F7"/>
<path fill-rule="evenodd" clip-rule="evenodd" d="M79.1002 91.8274C79.4718 92.9117 80.1201 93.5735 81.0229 94.5978L81.1498 94.7402C81.3754 94.9881 82.3975 96.0886 82.7319 96.4704C83.4076 97.242 83.9767 97.9843 84.5218 98.8366C85.3526 100.136 86.0854 101.636 86.7432 103.453C86.7749 103.54 86.8064 103.63 86.8378 103.722L86.9239 103.98C86.9431 104.039 86.9626 104.1 86.9824 104.162L87.0949 104.524C87.1523 104.713 87.2688 105.098 87.2903 105.169L87.3525 105.37C87.7302 106.574 88.0102 107.147 88.4412 107.502L88.5175 107.563C89.0874 108.007 89.6203 108.131 91.0184 108.183L91.6608 108.202C93.7112 108.259 94.7807 106.63 93.6075 105.447C93.2395 105.076 92.026 104.788 90.0411 104.668C89.7811 104.652 89.5831 104.429 89.5989 104.168C89.6146 103.908 89.8382 103.71 90.0983 103.726L90.3458 103.742C92.4186 103.886 93.7071 104.208 94.2774 104.783C96.1139 106.635 94.4786 109.171 91.719 109.147L91.3869 109.139C89.4166 109.086 88.7103 108.945 87.842 108.231C87.2225 107.721 86.8861 107.036 86.4537 105.657L86.1737 104.738L86.0837 104.449C86.0454 104.328 86.0089 104.216 85.9724 104.108L85.9451 104.027C85.9154 103.94 85.8859 103.856 85.8562 103.774C85.2217 102.022 84.5196 100.584 83.727 99.3448C83.2491 98.5976 82.7516 97.9391 82.1695 97.2617L82.0221 97.0919C81.6816 96.7031 80.5723 95.5099 80.418 95.3374C79.4119 94.2129 78.8108 93.3045 78.382 92.1076L78.3382 91.9827C77.5039 89.5486 76.4329 88.7183 75.0336 89.237C74.7893 89.3275 72.0555 90.639 74.7032 88.8785C77.3509 87.1179 79.1002 91.8274 79.1002 91.8274Z" fill="#302934"/>
<path fill-rule="evenodd" clip-rule="evenodd" d="M95.5612 75.0693C95.0472 75.0693 94.3096 73.5929 94.3096 72.8715C94.3096 72.1502 96.1552 72.3942 96.1552 72.3942C96.1552 72.3942 98.0935 72.654 97.8263 73.3796C97.5591 74.1051 95.8468 75.0693 95.5612 75.0693Z" fill="#75C3EE"/>
<ellipse cx="92.5233" cy="69.7581" rx="1.01794" ry="1.90171" fill="#302934"/>
<ellipse cx="102.259" cy="70.1883" rx="1.11562" ry="1.87193" fill="#302934"/>
<path fill-rule="evenodd" clip-rule="evenodd" d="M101.53 73.3312C102.38 72.9662 103.321 72.8972 104.342 73.1201C105.34 73.3381 108.348 75.2207 108.243 75.3877C108.138 75.5547 105.092 74.0155 104.189 73.8184C103.309 73.6262 102.52 73.6841 101.812 73.988C101.631 74.0659 101.421 73.982 101.343 73.8007C101.265 73.6193 101.349 73.4091 101.53 73.3312Z" fill="#302934"/>
<path fill-rule="evenodd" clip-rule="evenodd" d="M102.072 74.5662C102.964 74.6134 103.196 74.4099 104.418 75.2031C105.64 75.9963 106.553 77.8644 106.386 77.9694C106.219 78.0743 105.244 76.4083 104.125 75.5694C103.005 74.7304 101.685 75.1013 101.696 74.9042C101.706 74.718 101.856 74.5727 102.039 74.5659L102.072 74.5662Z" fill="#302934"/>
<path fill-rule="evenodd" clip-rule="evenodd" d="M95.8774 75.8438C95.6294 77.3841 95.6917 78.3647 95.7846 79.4588C95.8774 80.5528 96.752 82.1281 96.8397 82.7865C96.9274 83.4449 95.1854 80.7298 95.0799 79.5787C94.9745 78.4277 94.2278 75.2988 95.5322 75.4444C95.5322 75.4444 95.9049 75.6728 95.8774 75.8438Z" fill="#302934"/>
<path fill-rule="evenodd" clip-rule="evenodd" d="M89.3856 73.5195C90.1778 73.5195 90.4987 73.539 91.27 73.6908C91.4637 73.7289 91.5898 73.9168 91.5517 74.1105C91.5136 74.3041 91.3257 74.4302 91.132 74.3921C90.8575 74.3381 90.331 74.1084 89.458 74.1177C88.2648 74.1304 87.2263 74.7925 87.1743 74.6828C87.0898 74.5044 88.5935 73.5195 89.3856 73.5195Z" fill="#302934"/>
<path fill-rule="evenodd" clip-rule="evenodd" d="M90.6809 71.9846C90.873 72.0299 90.9921 72.2223 90.9467 72.4145C90.9014 72.6066 90.709 72.7256 90.5169 72.6803C88.8009 72.2756 87.424 72.2865 86.4529 72.2485C85.4978 72.2112 83.3552 72.3608 83.2925 72.1736C83.2298 71.9865 88.9241 71.5702 90.6809 71.9846Z" fill="#302934"/>
<path fill-rule="evenodd" clip-rule="evenodd" d="M98.6417 94.7379C98.9022 94.7425 99.1096 94.9574 99.105 95.2179C99.088 96.1797 99.2227 96.8588 99.4826 97.2495C100.573 98.8886 101.498 99.9944 102.365 100.362C102.389 100.372 102.445 100.387 102.533 100.404L102.663 100.427C102.76 100.443 103.172 100.506 103.244 100.517C103.515 100.56 103.739 100.601 103.957 100.65C104.438 100.76 104.839 100.899 105.17 101.093C106.167 101.675 106.825 102.527 106.889 103.364C106.963 104.331 106.26 105.054 105.017 105.28C101.965 105.837 99.8296 105.291 98.7044 103.596C97.5332 101.936 96.3637 100.559 95.1972 99.4645C94.0494 98.3879 93.0304 97.6958 92.1516 97.3842C91.9061 97.2971 91.7776 97.0275 91.8646 96.782C91.9517 96.5364 92.2213 96.408 92.4669 96.495C93.4863 96.8565 94.6078 97.6183 95.8426 98.7764C97.0587 99.9171 98.2692 101.342 99.4828 103.063C100.369 104.399 102.129 104.848 104.848 104.352C105.654 104.205 105.981 103.869 105.948 103.436C105.911 102.948 105.447 102.347 104.694 101.908C104.459 101.77 104.144 101.66 103.748 101.57C103.578 101.532 103.4 101.498 103.189 101.464L102.507 101.358L102.375 101.334C102.212 101.304 102.096 101.273 101.996 101.231C101.348 100.956 100.682 100.364 99.9839 99.5294C99.524 98.9794 99.1708 98.4842 98.6971 97.772C98.3113 97.1919 98.1417 96.337 98.1617 95.2012C98.1663 94.9408 98.3812 94.7333 98.6417 94.7379Z" fill="#302934"/>
<path fill-rule="evenodd" clip-rule="evenodd" d="M102.452 103.44C102.499 103.284 102.663 103.195 102.819 103.242C103.305 103.387 103.649 103.547 103.858 103.738C104.057 103.919 104.254 104.196 104.455 104.572C104.532 104.716 104.478 104.895 104.334 104.971C104.19 105.048 104.012 104.994 103.935 104.85C103.763 104.528 103.603 104.302 103.462 104.174C103.332 104.056 103.059 103.929 102.65 103.807C102.494 103.76 102.406 103.596 102.452 103.44Z" fill="#302934"/>
<path fill-rule="evenodd" clip-rule="evenodd" d="M103.99 102.816C104.042 102.662 104.209 102.578 104.363 102.629C104.779 102.768 105.088 102.926 105.294 103.112C105.497 103.297 105.693 103.596 105.891 104.013C105.96 104.16 105.898 104.336 105.751 104.406C105.604 104.476 105.428 104.413 105.358 104.266C105.19 103.913 105.033 103.672 104.897 103.549C104.763 103.427 104.522 103.304 104.177 103.189C104.022 103.137 103.939 102.971 103.99 102.816Z" fill="#302934"/>
<path fill-rule="evenodd" clip-rule="evenodd" d="M91.3687 106.879C91.4201 106.725 91.587 106.641 91.7415 106.692C92.1574 106.831 92.4666 106.989 92.672 107.175C92.8756 107.36 93.0711 107.659 93.269 108.076C93.3389 108.223 93.2762 108.399 93.1291 108.469C92.982 108.539 92.8062 108.476 92.7364 108.329C92.5685 107.976 92.4114 107.735 92.2755 107.612C92.1412 107.49 91.9002 107.367 91.5553 107.252C91.4008 107.2 91.3173 107.034 91.3687 106.879Z" fill="#302934"/>
<path fill-rule="evenodd" clip-rule="evenodd" d="M92.2261 105.878C92.2775 105.724 92.4444 105.64 92.5989 105.691C93.0149 105.83 93.324 105.988 93.5294 106.174C93.7331 106.359 93.9286 106.658 94.1264 107.075C94.1963 107.222 94.1336 107.398 93.9866 107.468C93.8395 107.538 93.6636 107.475 93.5938 107.328C93.426 106.975 93.2688 106.734 93.1329 106.611C92.9987 106.489 92.7576 106.366 92.4127 106.251C92.2583 106.199 92.1747 106.033 92.2261 105.878Z" fill="#302934"/>
<path fill-rule="evenodd" clip-rule="evenodd" d="M57.5124 95.4474C57.7045 95.2714 60.9605 99.0058 61.6588 100.189C61.8839 100.571 62.0616 100.938 62.2195 101.331C62.2681 101.452 62.3135 101.572 62.3626 101.707L62.5477 102.23C62.8224 102.993 63.2787 103.305 63.8976 103.655C65.7136 104.679 67.858 104.667 68.9646 103.943C69.5783 103.541 68.7494 102.425 67.1401 102.425C66.3879 102.425 65.7408 101.417 65.249 100.105C65.0186 99.4902 64.961 98.5092 65.057 97.1308C65.0752 96.8709 65.3005 96.6749 65.5604 96.693C65.8203 96.7111 66.0163 96.9365 65.9982 97.1964C65.9108 98.4495 65.9619 99.3189 66.1323 99.7735L66.182 99.9018C66.5133 100.733 67.0007 101.482 67.1401 101.482C68.2741 101.482 69.2332 101.918 69.7489 102.613C70.2945 103.348 70.2226 104.247 69.4811 104.732C68.0708 105.655 65.5489 105.67 63.434 104.476C62.6168 104.015 62.2586 103.537 61.9234 102.635L61.7434 102.128C61.6831 101.959 61.6316 101.821 61.5761 101.683C61.4352 101.332 61.278 101.007 61.0783 100.669C60.3844 99.4927 59.1851 97.9716 57.4833 96.1139C57.3073 95.9218 57.3204 95.6234 57.5124 95.4474Z" fill="#302934"/>
<path fill-rule="evenodd" clip-rule="evenodd" d="M66.2478 103.44C66.2944 103.284 66.4586 103.195 66.6146 103.242C67.1003 103.387 67.444 103.547 67.6537 103.738C67.8526 103.919 68.049 104.196 68.2504 104.572C68.3271 104.716 68.273 104.895 68.1294 104.971C67.9858 105.048 67.8072 104.994 67.7304 104.85C67.5581 104.528 67.398 104.302 67.2572 104.174C67.1273 104.056 66.8542 103.929 66.4459 103.807C66.2899 103.76 66.2012 103.596 66.2478 103.44Z" fill="#302934"/>
<path fill-rule="evenodd" clip-rule="evenodd" d="M67.357 102.959C67.4084 102.805 67.5753 102.721 67.7298 102.772C68.1457 102.911 68.4549 103.069 68.6602 103.255C68.8639 103.44 69.0594 103.739 69.2573 104.156C69.3271 104.303 69.2645 104.479 69.1174 104.549C68.9703 104.619 68.7945 104.556 68.7247 104.409C68.5568 104.056 68.3997 103.815 68.2637 103.692C68.1295 103.57 67.8885 103.447 67.5436 103.332C67.3891 103.281 67.3055 103.114 67.357 102.959Z" fill="#302934"/>
<path fill-rule="evenodd" clip-rule="evenodd" d="M12.9801 53.0662L12.8804 53.1349C12.5648 53.3555 11.9569 53.799 11.823 53.8931L11.8093 53.9027C11.4625 54.1416 11.2283 54.2626 11.0452 54.2973C7.81103 54.9101 5.01789 55.5959 3.10591 57.0435C0.432441 59.0676 -1.01171 62.6071 0.820098 66.1693C2.1236 68.7041 7.0514 69.338 9.93696 67.9672C10.4307 67.7327 10.9565 67.439 11.591 67.0509L11.8547 66.888C11.946 66.8312 12.0399 66.7723 12.1398 66.7092L12.8306 66.2683L13.586 65.7846L13.8624 65.6097C16.6397 63.8648 18.4042 63.1102 20.2859 63.1102C21.8414 63.1102 22.936 63.5373 24.3111 64.5462L24.4148 64.6229C24.6536 64.8013 26.2032 66.0373 26.7264 66.4183C28.0822 67.4055 29.4208 68.1334 31.0828 68.7021L31.229 68.7507C33.6613 69.5378 38.3137 69.9791 45.2247 70.0889C45.379 70.0913 45.5248 70.0181 45.615 69.8927L45.8844 69.5208C46.2714 68.9899 46.5821 68.5807 46.8152 68.2945C47.0953 67.9508 47.3847 67.6357 47.6836 67.3493C47.9744 67.0707 47.8047 66.5793 47.4039 66.5394L46.9882 66.4971C40.2427 65.7954 35.7019 64.568 33.3927 62.8492L33.2244 62.723C31.9929 61.7918 30.8167 60.7409 29.0239 59.0208L26.7071 56.7952C25.7911 55.9224 25.4691 55.6386 24.8274 55.0935L24.7269 55.0083C23.2266 53.7359 21.9248 52.8637 20.6622 52.3433C20.3851 52.2291 20.1107 52.1325 19.8384 52.0538C17.0266 51.2413 15.0081 51.6928 12.9801 53.0662ZM19.5761 52.9601C19.8146 53.029 20.0565 53.1141 20.3024 53.2155C21.4213 53.6766 22.6056 54.4609 23.9785 55.6114L24.5157 56.068C25.1071 56.5765 25.5165 56.9571 26.8793 58.2667L28.4955 59.8213C30.3258 61.5736 31.5247 62.635 32.8291 63.6059L32.9057 63.6623C35.2754 65.3837 39.58 66.5936 45.8419 67.3201L46.3541 67.3779L46.347 67.3859C46.2878 67.4538 46.2291 67.5227 46.1707 67.5927L46.042 67.7497L45.9436 67.8731C45.7567 68.1095 45.5345 68.4029 45.2764 68.7537L44.9932 69.1413L44.42 69.1307C37.9195 68.9986 33.5634 68.5537 31.3879 67.8094C29.8817 67.294 28.6621 66.6425 27.4294 65.7623L27.2814 65.6556C26.7792 65.2899 25.2357 64.0587 24.9791 63.8671C23.4046 62.6908 22.1078 62.1667 20.2856 62.1667C18.1733 62.1667 16.2847 62.9734 13.365 64.8078L12.9163 65.0924L11.9541 65.7091C11.6685 65.8915 11.4428 66.0337 11.2234 66.1692L10.9797 66.3183C10.4245 66.6546 9.96088 66.9112 9.53187 67.115C7.0857 68.277 3.55271 67.311 2.49424 65.2527C0.875297 62.1045 1.44494 59.7908 3.75841 58.0392C5.52574 56.7011 8.11806 55.8119 11.2205 55.2241C11.5453 55.1626 11.8582 55.0072 12.2665 54.7324L12.3442 54.6795C12.4653 54.5961 13.1993 54.0597 13.4795 53.8672L13.5088 53.8472C15.3201 52.6206 17.0571 52.2321 19.5761 52.9601Z" fill="#302934"/>
<path fill-rule="evenodd" clip-rule="evenodd" d="M132.546 65.7804L132.501 65.8884L132.412 66.1117C131.252 69.0551 130.227 73.5648 129.333 79.6515L129.281 80.0092L129.278 79.9916C128.932 77.9506 128.494 76.3647 127.962 75.2286C127.037 73.255 125.72 72.5099 124.163 73.2181C119.111 75.5165 119.412 84.8623 124.763 101.286C124.834 101.505 125.038 101.652 125.267 101.652H131.076C131.232 101.652 131.38 101.584 131.481 101.465C138.734 92.9098 141.982 87.1584 141.188 83.9985L141.162 83.8983C140.44 81.1799 138.633 80.5974 136.056 82.0582L135.964 82.1107L136.093 81.8149C140.563 71.4592 141.383 65.0828 138.363 62.5976C136.145 60.7731 134.121 61.9802 132.546 65.7804ZM137.775 63.0073C140.434 65.1951 139.489 72.3592 134.444 83.463C134.214 83.9708 140.158 79.9915 140.158 84.257L140.177 84.3382C140.75 86.9636 137.796 92.264 131.283 100.051L130.829 100.591L125.267 100.987C125.267 100.987 117.768 76.228 124.602 74.184C126.569 73.5958 128.02 76.4518 128.739 84.1769C128.798 84.8095 129.717 84.8229 129.795 84.1923L129.858 83.6834C130.891 75.4211 132.118 69.582 133.526 66.1868L133.606 65.9953C134.921 62.9165 136.289 61.7849 137.775 63.0073Z" fill="#302934"/>
<path d="M137.688 63.4167C140.347 65.6045 139.27 72.3034 134.226 83.4072C133.995 83.915 134.603 84.3893 135.039 84.0417L135.217 83.9022C138.082 81.6714 139.552 81.842 140.158 84.2567L140.177 84.3379C140.75 86.9633 137.796 92.2637 131.283 100.051L130.829 100.591H125.653L125.467 100.012C120.587 84.7171 120.394 76.098 124.602 74.1837C126.544 73.3007 128.02 76.4515 128.74 84.1766C128.798 84.8092 129.717 84.8226 129.795 84.192L129.858 83.6831C130.891 75.4208 132.118 69.5817 133.526 66.1864L133.606 65.995C134.921 62.9162 136.202 62.1943 137.688 63.4167Z" fill="#F2F3F7"/>
<ellipse cx="123.86" cy="80.9503" rx="1.8868" ry="1.8868" fill="#E7EAEE"/>
<ellipse cx="135.652" cy="68.6861" rx="1.88681" ry="1.88682" fill="#E7EAEE"/>
<ellipse cx="136.595" cy="86.8468" rx="1.88681" ry="1.88679" fill="#E7EAEE"/>
<path fill-rule="evenodd" clip-rule="evenodd" d="M36.5899 102.963C33.2594 103.016 21.8061 103.864 21.6083 103.439C21.3552 102.896 33.8449 102.181 36.5673 102.138L37.4201 102.126C39.8955 102.1 36.5899 102.963 36.5899 102.963ZM85.581 101.859C85.874 101.852 86.1177 102.083 86.1255 102.376C86.1332 102.669 85.902 102.913 85.609 102.92L80.8687 103.037C77.9183 103.105 74.4985 103.175 69.4452 103.275C69.1522 103.281 68.91 103.048 68.9042 102.755C68.8984 102.462 69.1313 102.219 69.4243 102.214L78.3725 102.031C81.0891 101.973 83.2717 101.92 85.581 101.859ZM97.8079 101.612C98.1009 101.607 98.3423 101.841 98.3469 102.134C98.3515 102.427 98.1177 102.668 97.8247 102.673L96.5812 102.688L92.7766 102.714C91.9799 102.723 91.3562 102.733 90.6212 102.751C90.3282 102.759 90.0849 102.527 90.0777 102.234C90.0705 101.941 90.3022 101.698 90.5952 101.69L91.5311 101.67C92.1438 101.659 92.7664 101.652 93.5937 101.646L96.7575 101.625C97.1253 101.621 97.4583 101.617 97.8079 101.612ZM132.199 100.591C132.199 100.591 133.152 100.427 140.108 100.947C140.4 100.969 140.619 101.224 140.597 101.516C140.575 101.808 137.136 101.661 132.433 101.653L131.14 101.655C127.687 101.67 124.48 101.763 119.156 101.983L112.437 102.266C109.569 102.384 107.858 102.441 105.778 102.49C105.485 102.497 105.242 102.265 105.235 101.972C105.228 101.679 105.46 101.436 105.753 101.429L107.424 101.385C109.411 101.328 111.453 101.248 115.073 101.093L118.912 100.93C124.915 100.682 128.253 100.591 132.199 100.591Z" fill="#302934"/>
<path d="M116.12 24.203L116.242 23.9794C117.194 22.2559 118.023 21.4003 118.989 21.6795C119.068 21.7021 119.144 21.733 119.22 21.772C119.812 22.079 119.954 22.65 119.788 23.4292L119.777 23.4773L119.805 23.4372C120.086 23.0385 120.353 22.7306 120.631 22.5021L120.691 22.4543C121.308 21.974 121.962 21.9293 122.555 22.4297C123.502 23.2288 123.394 24.569 122.621 25.3939L122.579 25.4384C122.471 25.547 122.407 25.782 122.334 26.3351L122.272 26.8197C122.197 27.3789 122.147 27.6241 122.029 28.0029C121.806 28.7183 121.441 29.3152 120.872 29.8025C120.157 30.4152 118.951 30.3297 117.251 29.6314C117.069 29.5563 116.982 29.3475 117.057 29.165C117.132 28.9824 114.673 26.8141 114.599 26.9092L114.575 26.9368C114.438 27.0791 114.212 27.0837 114.069 26.9469L113.724 26.6141C113.516 26.4135 113.62 26.0619 113.903 26.0062C114.422 25.9043 114.826 25.7918 115.109 25.6717C115.347 25.5709 115.476 25.4744 115.507 25.4119C115.507 25.4119 116.024 24.3837 116.12 24.203Z" fill="#F2F3F7"/>
<path fill-rule="evenodd" clip-rule="evenodd" d="M113.57 26.0417C112.967 25.9964 112.613 26.4544 112.613 27.0088C112.613 28.9278 115.748 31.5522 117.792 31.5522C118.39 31.5522 118.88 31.1239 118.706 30.4691C118.641 30.2224 118.49 30.0034 118.242 29.7336L118.188 29.675C117.91 29.3796 117.622 29.1158 116.977 28.5609L115.99 27.7143C115.747 27.5045 115.362 27.17 115.245 27.0704L115.105 26.9513C114.835 26.7236 114.626 26.5578 114.44 26.426C114.11 26.1931 113.855 26.0631 113.57 26.0417ZM113.328 27.0087C113.328 26.2584 114.403 27.2957 115.697 28.4058L116.556 29.1412C117.608 30.0484 118.893 30.9921 118.242 31.0613C116.182 31.2806 113.328 28.5483 113.328 27.0087Z" fill="#302934"/>
<path fill-rule="evenodd" clip-rule="evenodd" d="M113.735 21.0127C113.883 20.8818 114.621 20.3667 114.24 21.0431C113.859 21.7195 111.656 22.5774 113.859 25.998C113.943 26.128 113.84 26.3891 113.657 26.4612C113.473 26.5334 113.266 26.4429 113.194 26.2592C112.637 24.8407 112.379 23.8139 112.428 23.1463C112.481 22.4389 112.925 21.7313 113.735 21.0127Z" fill="#302934"/>
<path fill-rule="evenodd" clip-rule="evenodd" d="M110.983 22.2036C111.022 22.0101 111.403 21.5312 111.403 21.9235C111.403 22.3158 110.842 23.3108 111.632 24.432C112.422 25.5533 113.781 26.3137 113.665 26.4733C113.549 26.6328 113.325 26.6679 113.165 26.5517C112.022 25.7187 111.328 25.067 111.066 24.5561C110.793 24.0232 110.774 23.2432 110.983 22.2036Z" fill="#302934"/>
<path fill-rule="evenodd" clip-rule="evenodd" d="M116.12 24.203L116.242 23.9794C117.194 22.2559 118.023 21.4003 118.989 21.6795C119.068 21.7021 119.144 21.733 119.22 21.772C119.812 22.079 119.954 22.65 119.788 23.4292L119.777 23.4773L119.805 23.4372C120.086 23.0385 120.353 22.7306 120.631 22.5021L120.691 22.4543C121.308 21.974 121.962 21.9293 122.555 22.4297C123.502 23.2288 123.394 24.569 122.621 25.3939L122.579 25.4384C122.471 25.547 122.407 25.782 122.334 26.3351L122.272 26.8197C122.197 27.3789 122.147 27.6241 122.029 28.0029C121.806 28.7183 121.441 29.3152 120.872 29.8025C120.157 30.4152 118.951 30.3297 117.251 29.6314C117.069 29.5563 116.982 29.3475 117.057 29.165C117.132 28.9824 119.705 30.4776 120.691 29.3152C121.677 28.1529 121.783 25.7485 122.067 25.0198L122.136 24.8928C122.681 24.3416 122.7 23.4872 122.094 22.9759C121.782 22.7121 121.498 22.7315 121.13 23.0184C120.794 23.2797 120.444 23.7285 120.04 24.3815L119.922 24.5763C119.724 24.9112 119.326 25.6057 119.273 25.694L119.201 25.8143C118.956 26.2143 118.644 26.4648 118.597 26.4755C118.551 26.4863 118.485 26.4491 118.469 26.1108C118.464 25.9995 118.492 25.8875 118.551 25.7352L118.575 25.6761C118.646 25.5016 119.041 24.6814 119.068 24.6226C119.188 24.3642 119.284 24.1391 119.364 23.9267C119.686 23.0707 119.207 22.5707 118.891 22.4065C118.857 22.3889 118.824 22.3756 118.791 22.3662C118.3 22.2244 117.617 22.9531 116.82 24.413L116.647 24.7361C116.519 24.9798 116.394 25.2304 116.148 25.7283C115.969 26.0903 115.492 26.3498 114.697 26.5592L114.654 26.5702L114.657 26.5806C114.692 26.6905 114.673 26.8141 114.599 26.9092L114.575 26.9368C114.438 27.0791 114.212 27.0837 114.069 26.9469L113.724 26.6141C113.516 26.4135 113.62 26.0619 113.903 26.0062C114.422 25.9043 114.826 25.7918 115.109 25.6717C115.347 25.5709 115.476 25.4744 115.507 25.4119L115.841 24.7399C115.944 24.5365 116.024 24.3837 116.12 24.203Z" fill="#302934"/>
<ellipse cx="120.81" cy="25.2961" rx="0.812004" ry="0.665718" fill="#75C3EE"/>
<ellipse cx="118.49" cy="23.4401" rx="0.812004" ry="0.66572" fill="#75C3EE"/>
<path fill-rule="evenodd" clip-rule="evenodd" d="M113.498 28.1096C113.385 28.0091 113.243 27.8278 113.118 27.6316L112.957 27.703L112.767 27.7844C112.729 27.8019 112.704 27.8156 112.697 27.8266C112.675 27.8674 112.625 27.883 112.583 27.8613C112.543 27.8397 112.527 27.7891 112.549 27.7484C112.564 27.7097 112.671 27.5884 112.869 27.4697C112.905 27.4481 112.945 27.4281 112.987 27.4086C112.914 27.2719 112.857 27.1397 112.83 27.0338C112.789 26.8775 112.821 26.7668 112.875 26.7279C112.928 26.6894 113.059 26.6822 113.26 26.8489C113.297 26.877 113.303 26.9296 113.275 26.9661C113.247 27.0025 113.195 27.0092 113.158 26.9811C113.119 26.9529 113.081 26.9369 113.05 26.9254L113.065 26.9852C113.071 27.0066 113.078 27.0289 113.088 27.0506C113.124 27.1293 113.17 27.2192 113.222 27.3114C113.379 27.2521 113.557 27.1984 113.75 27.1725C113.844 27.1598 113.94 27.1574 114.04 27.1582C114.097 27.1544 114.146 27.1979 114.15 27.2552C114.154 27.3125 114.11 27.3621 114.053 27.3659C113.821 27.3883 113.607 27.4469 113.417 27.5128L113.355 27.5352C113.457 27.6954 113.567 27.8409 113.661 27.923C113.712 27.9681 113.718 28.0466 113.673 28.098C113.627 28.1497 113.549 28.1548 113.498 28.1096Z" fill="#75C3EE"/>
<path fill-rule="evenodd" clip-rule="evenodd" d="M58.942 91.9378C58.3553 94.7023 55.5237 95.4863 55.5543 97.7117C55.5702 98.8628 55.888 99.8178 56.149 100.552C56.6796 102.045 58.0623 103.583 58.7026 105.007C59.2499 106.224 61.9958 105.401 62.2151 107.292C62.3346 108.322 60.3921 108.916 59.8634 108.956C59.1045 109.013 58.1427 108.752 56.9778 108.174C55.5611 107.486 54.4239 106.943 53.6006 105.951C53.44 105.758 53.3392 105.212 53.1616 104.353C52.9673 103.414 52.3036 101.025 50.5695 97.1683C50.3218 96.6175 49.3738 94.3634 48.3194 92.0577C47.4493 90.1552 51.0452 86.3437 52.6396 86.477C56.5562 86.8045 59.3564 89.9852 58.942 91.9378Z" fill="#F2F3F7"/>
<path fill-rule="evenodd" clip-rule="evenodd" d="M56.1954 108.214C55.2204 107.634 54.4186 106.965 53.7898 106.207C53.6292 106.014 53.5112 105.301 53.3337 104.443C53.2406 103.993 49.8557 95.8721 48.7392 92.8155C48.5309 92.2452 49.0366 92.6443 49.1554 92.8155C49.8032 93.749 53.7898 99.9062 55.6945 105.611" fill="#E7EAEE"/>
<path fill-rule="evenodd" clip-rule="evenodd" d="M56.9558 107.972L57.1007 108.043C58.1963 108.587 59.0807 108.827 59.7408 108.777C60.4499 108.723 61.6073 108.084 61.6585 107.539C61.7407 106.666 61.504 106.418 60.3348 105.976C59.9958 105.848 59.0789 105.876 57.6659 106.09C57.4083 106.129 57.1679 105.952 57.1289 105.694C57.0899 105.436 57.2671 105.196 57.5247 105.157L57.757 105.123C59.2024 104.916 60.1494 104.898 60.6682 105.093L60.822 105.153C62.2252 105.708 62.7243 106.282 62.5977 107.628C62.4905 108.768 60.9249 109.633 59.8121 109.718C58.9821 109.781 57.982 109.519 56.8032 108.948L56.6847 108.89C55.2103 108.174 54.0364 107.293 53.1678 106.247C53.0534 106.109 52.9802 105.925 52.9051 105.644L52.8877 105.577C52.8599 105.467 52.8321 105.346 52.7997 105.194L52.6127 104.276L52.5839 104.142C52.2762 102.765 51.3851 100.222 50.0351 97.2014L49.8293 96.7468C49.7024 96.4704 47.8917 93.5361 47.7565 92.8484C47.2512 90.2775 49.3175 89.0039 49.3175 89.0039C49.3175 89.0039 48.2458 91.265 48.5478 92.3766C48.7826 93.2408 50.7641 96.2145 51.469 98.4942C52.1985 100.854 52.9619 103.371 54.0772 105.429C54.9192 106.983 55.5218 107.687 56.9558 107.972Z" fill="#302934"/>
<path fill-rule="evenodd" clip-rule="evenodd" d="M59.2429 107.443C59.2895 107.287 59.4537 107.198 59.6097 107.245C60.0954 107.39 60.4391 107.55 60.6488 107.741C60.8477 107.921 61.0441 108.199 61.2455 108.575C61.3223 108.719 61.2681 108.898 61.1245 108.974C60.981 109.051 60.8023 108.997 60.7255 108.853C60.5532 108.531 60.3931 108.305 60.2523 108.177C60.1225 108.059 59.8494 107.932 59.441 107.81C59.285 107.763 59.1963 107.599 59.2429 107.443Z" fill="#302934"/>
<path fill-rule="evenodd" clip-rule="evenodd" d="M60.0669 106.533C60.1183 106.378 60.2852 106.295 60.4397 106.346C60.8557 106.485 61.1648 106.642 61.3702 106.829C61.5739 107.014 61.7694 107.313 61.9673 107.73C62.0371 107.877 61.9745 108.053 61.8274 108.123C61.6803 108.193 61.5044 108.13 61.4346 107.983C61.2668 107.629 61.1096 107.389 60.9737 107.265C60.8395 107.143 60.5984 107.02 60.2536 106.906C60.0991 106.854 60.0155 106.687 60.0669 106.533Z" fill="#302934"/>
<path fill-rule="evenodd" clip-rule="evenodd" d="M57.1148 87.5325C58.1519 87.9497 60.1918 90.2624 59.8762 91.5613C59.55 92.9043 59.0714 93.4409 58.3099 94.3314L58.2302 94.4233C57.998 94.6874 57.0388 95.6618 57.0008 95.7028L56.9098 95.8031C56.0551 96.7676 55.7058 97.8341 56.4011 99.7997C56.9104 101.24 57.7482 102.876 58.9046 104.437C59.0571 104.643 59.4367 105.248 59.2308 105.4C59.0249 105.553 58.5376 105.06 58.385 104.854C57.1765 103.223 56.3003 101.642 55.7582 100.109C54.9393 97.7941 55.1369 96.8401 56.2671 95.5938L56.3391 95.5161C56.4601 95.39 57.2912 94.5449 57.5112 94.2994L57.5333 94.2745C58.2435 93.4667 58.7115 92.611 59.0119 91.3744C59.2195 90.5197 58.3468 89.0021 56.5024 87.7705C55.2781 86.9529 56.0776 87.1153 57.1148 87.5325Z" fill="#302934"/>
</svg>
